<svg  xmlns="http://www.w3.org/2000/svg" version="1.1" width="100%" height="100%" viewBox="3.3399999141693115 -112.55999755859375 525.0799560546875 152.6699981689453">
            <g fill="#fff">
              <path d="M65.88 -109.98C64.66 -110.26 63.42 -110.77 62.16 -111.49C60.9 -112.2 59.7 -112.56 58.55 -112.56C58.04 -112.56 57.54 -112.46 57.04 -112.24C57.11 -111.09 57 -110.16 56.71 -109.44C56.43 -108.72 56.03 -107.86 55.53 -106.85C55.6 -106.63 55.64 -106.38 55.64 -106.09L55.64 -105.45C55.64 -103.72 55.31 -102.07 54.66 -100.49C54.02 -98.91 53.69 -97.25 53.69 -95.53C53.69 -94.74 53.8 -93.98 54.02 -93.26C53.59 -92.69 53.25 -92.08 52.99 -91.43C52.74 -90.78 52.62 -90.07 52.62 -89.27C52.62 -88.92 52.63 -88.56 52.67 -88.2C52.71 -87.84 52.72 -87.48 52.72 -87.12C52.72 -86.62 52.51 -86.04 52.08 -85.39C51.65 -84.75 51.36 -84.17 51.21 -83.67C51.57 -83.45 51.75 -83.11 51.75 -82.64C51.75 -82.18 51.83 -81.76 51.97 -81.4C51.54 -80.76 51.2 -80.06 50.94 -79.3C50.69 -78.55 50.46 -77.77 50.24 -76.98C50.03 -76.19 49.76 -75.44 49.44 -74.72C49.11 -74 48.66 -73.39 48.09 -72.89C48.16 -70.08 47.85 -67.3 47.17 -64.53C46.49 -61.76 46.15 -58.94 46.15 -56.07L46.15 -54.99C46.15 -54.63 46.18 -54.27 46.25 -53.91C45.18 -52.33 44.46 -50.39 44.1 -48.09C43.74 -45.79 43.42 -43.7 43.13 -41.83C42.55 -41.12 41.92 -40.54 41.24 -40.11C40.56 -39.68 39.93 -39.1 39.35 -38.38C38.28 -38.38 37.36 -38.2 36.6 -37.84C35.85 -37.49 35.15 -37.09 34.5 -36.66C33.86 -36.23 33.23 -35.81 32.62 -35.42C32 -35.02 31.27 -34.83 30.41 -34.83C30.26 -34.83 30.06 -34.84 29.81 -34.88C29.56 -34.92 29.36 -34.93 29.22 -34.93C28.21 -33.93 27.13 -33.3 25.98 -33.05C24.83 -32.8 23.61 -32.53 22.32 -32.24C21.89 -32.38 21.46 -32.58 21.02 -32.83C20.59 -33.08 20.16 -33.21 19.73 -33.21C19.52 -33.21 19.19 -33.14 18.76 -32.99C17.61 -34.5 16.8 -36.1 16.33 -37.79C15.87 -39.48 15.63 -41.26 15.63 -43.13C15.63 -45 15.8 -46.81 16.12 -48.57C16.44 -50.33 16.71 -52.11 16.93 -53.91C17.07 -55.2 17.13 -56.57 17.09 -58.01C17.05 -59.44 17.25 -60.77 17.68 -62C17.83 -62.43 18.01 -62.82 18.22 -63.18C18.44 -63.54 18.62 -63.94 18.76 -64.37C19.12 -65.59 19.44 -66.92 19.73 -68.36C20.02 -69.8 20.31 -71.25 20.59 -72.72C20.88 -74.2 21.24 -75.62 21.67 -76.98C22.1 -78.35 22.68 -79.57 23.4 -80.65C23.68 -81.08 24.03 -81.48 24.42 -81.84C24.82 -82.19 25.21 -82.54 25.61 -82.86C26 -83.18 26.33 -83.56 26.58 -83.99C26.83 -84.42 26.95 -84.96 26.95 -85.61C26.95 -86.4 26.79 -87.08 26.47 -87.66C26.15 -88.23 25.8 -88.81 25.45 -89.38C24.01 -89.89 22.53 -90.14 21.02 -90.14C20.02 -90.14 19.07 -90.03 18.17 -89.81C17.27 -89.6 16.42 -89.2 15.63 -88.63C15.27 -87.55 14.84 -86.62 14.34 -85.82C13.84 -85.03 13.37 -84.23 12.94 -83.4C12.51 -82.57 12.15 -81.69 11.86 -80.76C11.57 -79.82 11.43 -78.71 11.43 -77.41L11.43 -77.09C10.21 -74.72 9.38 -72.54 8.95 -70.57C8.52 -68.59 8.34 -66.27 8.41 -63.61C7.62 -62.32 7.04 -60.97 6.68 -59.57C6.33 -58.17 6 -56.73 5.71 -55.26C5.43 -53.78 5.12 -52.35 4.8 -50.94C4.47 -49.54 3.99 -48.2 3.34 -46.9C3.7 -46.54 3.94 -46.08 4.04 -45.5C4.15 -44.92 4.2 -44.39 4.2 -43.88C4.2 -42.8 4.06 -41.69 3.77 -40.54C3.49 -39.39 3.34 -38.53 3.34 -37.95C3.34 -37.16 3.43 -36.34 3.61 -35.47C3.79 -34.61 3.95 -33.82 4.1 -33.1C4.53 -31.45 5.05 -30.05 5.66 -28.9C6.27 -27.75 7.01 -26.76 7.87 -25.93C8.73 -25.1 9.74 -24.4 10.89 -23.83C12.04 -23.25 13.37 -22.71 14.88 -22.21C15.31 -22.07 15.65 -21.92 15.9 -21.78C16.15 -21.64 16.39 -21.49 16.6 -21.35C16.82 -21.2 17.07 -21.1 17.36 -21.02C17.65 -20.95 18.04 -20.92 18.55 -20.92C19.91 -20.92 21.19 -21.19 22.37 -21.73C23.56 -22.26 24.83 -22.53 26.2 -22.53C27.06 -22.53 27.93 -22.28 28.79 -21.78C30.23 -23 32.02 -24.12 34.18 -25.12C36.34 -26.13 38.31 -26.81 40.11 -27.17C39.82 -24.37 39.48 -21.44 39.08 -18.38C38.69 -15.33 37.99 -12.47 36.98 -9.81C37.13 -8.59 37.11 -7.42 36.93 -6.31C36.75 -5.19 36.62 -4.06 36.55 -2.91C36.48 -1.9 36.44 -0.93 36.44 0L36.44 3.02C36.44 5.53 36.55 8.19 36.77 11C36.98 13.8 37.38 16.6 37.95 19.41C38.53 22.21 39.3 24.92 40.27 27.55C41.24 30.17 42.48 32.56 43.99 34.72C44.35 35.22 44.82 35.62 45.39 35.9C45.97 36.19 46.52 36.5 47.06 36.82C47.6 37.14 48.07 37.54 48.46 38.01C48.86 38.47 49.02 39.17 48.95 40.11C49.81 39.53 50.85 39.08 52.08 38.76C53.3 38.44 54.2 37.84 54.77 36.98C54.63 35.9 54.34 34.95 53.91 34.12C53.48 33.3 53.01 32.56 52.51 31.91C52.01 31.27 51.52 30.64 51.05 30.03C50.59 29.42 50.28 28.79 50.14 28.14L49.6 25.23C49.31 24.01 48.91 22.79 48.41 21.56C47.91 20.34 47.66 19.12 47.66 17.9C47.66 17.61 47.67 17.34 47.71 17.09C47.75 16.84 47.76 16.57 47.76 16.28C47.76 15.78 47.57 15.45 47.17 15.31C46.78 15.17 46.58 14.88 46.58 14.45L46.58 10.57C46.58 5.39 46.87 0.27 47.44 -4.8C48.02 -9.87 48.52 -14.99 48.95 -20.16C49.17 -20.16 49.42 -20.18 49.7 -20.22C49.99 -20.25 50.14 -20.45 50.14 -20.81L50.14 -21.46C50.14 -22.17 50.28 -22.86 50.57 -23.5C50.85 -24.15 51.07 -24.87 51.21 -25.66C51.5 -26.6 51.68 -27.6 51.75 -28.68C51.83 -29.76 52.04 -30.69 52.4 -31.48C52.62 -31.91 52.92 -32.24 53.32 -32.45C53.71 -32.67 54.05 -32.96 54.34 -33.32C54.7 -33.89 54.84 -34.5 54.77 -35.15C54.7 -35.8 54.81 -36.37 55.1 -36.87C55.45 -37.45 55.98 -37.9 56.66 -38.22C57.34 -38.55 57.86 -38.99 58.22 -39.57C58.58 -40 58.8 -40.47 58.87 -40.97C58.94 -41.47 59.12 -41.91 59.41 -42.27C59.91 -42.84 60.52 -43.33 61.24 -43.72C61.96 -44.12 62.64 -44.53 63.29 -44.96C63.36 -45.9 63.63 -46.67 64.1 -47.28C64.57 -47.89 64.8 -48.7 64.8 -49.7L64.8 -50.03C64.51 -50.03 64.37 -50.21 64.37 -50.57L64.37 -51.54C63.58 -51.82 62.61 -52.27 61.46 -52.89C60.31 -53.5 59.34 -53.8 58.55 -53.8C58.33 -53.8 57.94 -53.73 57.36 -53.59C57.86 -58.33 58.55 -63.04 59.41 -67.71C60.27 -72.38 61.15 -77.06 62.05 -81.73C62.95 -86.4 63.76 -91.09 64.48 -95.8C65.2 -100.51 65.66 -105.23 65.88 -109.98Z M141.14 -68.57C141.14 -69.29 140.97 -69.92 140.65 -70.46C140.33 -71 140.13 -71.66 140.06 -72.45C139.2 -72.31 138.31 -72.33 137.42 -72.51C136.52 -72.69 135.64 -72.78 134.77 -72.78C133.98 -72.78 133.27 -72.67 132.62 -72.45C130.82 -72.81 128.99 -73.06 127.12 -73.21C125.25 -73.35 123.38 -73.43 121.51 -73.43C119.36 -73.43 117.22 -73.39 115.1 -73.32C112.98 -73.25 110.84 -73.21 108.68 -73.21C107.17 -72.56 105.56 -72.24 103.83 -72.24C102.97 -72.24 102.11 -72.29 101.24 -72.4C100.38 -72.51 99.52 -72.63 98.66 -72.78C98.3 -72.49 98.03 -72.24 97.85 -72.02C97.67 -71.81 97.29 -71.7 96.71 -71.7C95.49 -71.56 94.41 -71.38 93.48 -71.16C92.55 -70.95 91.66 -70.68 90.84 -70.35C90.01 -70.03 89.18 -69.63 88.36 -69.17C87.53 -68.7 86.62 -68.18 85.61 -67.6C84.96 -67.17 84.26 -66.76 83.51 -66.36C82.75 -65.97 81.98 -65.66 81.19 -65.45C81.12 -65.02 80.97 -64.62 80.76 -64.26L80.11 -63.18L76.55 -63.18C75.98 -62.9 75.55 -62.5 75.26 -62C74.97 -61.49 74.54 -61.1 73.96 -60.81C73.89 -60.16 73.86 -59.48 73.86 -58.76L73.86 -56.71C73.86 -54.63 73.93 -52.54 74.07 -50.46C74.22 -48.38 74.29 -46.29 74.29 -44.21L74.29 -43.88C73.71 -42.52 73.17 -41.19 72.67 -39.89C72.17 -38.6 71.56 -37.34 70.84 -36.12L70.84 -35.36C70.84 -34.5 70.95 -33.77 71.16 -33.15C71.38 -32.54 71.63 -31.84 71.92 -31.05C71.77 -30.55 71.68 -29.97 71.65 -29.33C71.61 -28.68 71.56 -28.03 71.48 -27.39C71.41 -26.74 71.29 -26.11 71.11 -25.5C70.93 -24.89 70.69 -24.4 70.41 -24.04C70.69 -23.18 70.84 -22.17 70.84 -21.02C70.84 -19.87 70.77 -18.74 70.62 -17.63C70.48 -16.51 70.41 -15.38 70.41 -14.23C70.41 -13.44 70.48 -12.76 70.62 -12.18C70.77 -11.61 70.95 -10.93 71.16 -10.14C71.23 -10.06 71.27 -9.96 71.27 -9.81C71.27 -9.45 71.13 -9.24 70.84 -9.16C70.55 -9.09 70.41 -8.88 70.41 -8.52L70.41 -8.19C71.13 -6.33 71.81 -4.38 72.45 -2.37C73.1 -0.36 73.95 1.51 74.99 3.23C76.03 4.96 77.31 6.42 78.82 7.6C80.33 8.79 82.3 9.45 84.75 9.6C84.6 10.24 84.8 10.62 85.34 10.73C85.88 10.84 86.29 11.07 86.58 11.43C87.59 11.43 88.52 11.37 89.38 11.27C90.25 11.16 91.11 11.11 91.97 11.11C92.98 11.11 93.91 11.21 94.77 11.43C96.64 10.42 98.53 9.38 100.43 8.3C102.34 7.22 104.33 6.36 106.42 5.71C106.99 5 107.6 4.37 108.25 3.83C108.9 3.29 109.62 2.73 110.41 2.16C111.13 1.87 111.59 1.62 111.81 1.4C112.89 0.54 113.98 -0.7 115.1 -2.32C116.21 -3.94 117.27 -5.64 118.28 -7.44C119.28 -9.24 120.22 -11.03 121.08 -12.83C121.94 -14.63 122.7 -16.17 123.35 -17.47C122.84 -18.33 122.43 -19.25 122.11 -20.22C121.78 -21.19 121.33 -22.07 120.76 -22.86C120.4 -22.71 120.02 -22.61 119.63 -22.53C119.23 -22.46 118.85 -22.43 118.49 -22.43C118.13 -22.43 117.79 -22.46 117.47 -22.53C117.15 -22.61 116.8 -22.71 116.45 -22.86C116.01 -21.85 115.39 -21.02 114.56 -20.38C113.73 -19.73 112.96 -19.01 112.24 -18.22L112.24 -15.09C111.31 -14.52 110.61 -13.73 110.14 -12.72C109.67 -11.72 109.19 -10.71 108.68 -9.7C107.89 -9.42 107.07 -8.93 106.2 -8.25C105.34 -7.57 104.5 -6.86 103.67 -6.15C102.84 -5.43 102.09 -4.8 101.4 -4.26C100.72 -3.72 100.16 -3.45 99.73 -3.45C99.45 -3.45 99.18 -3.49 98.92 -3.56C98.67 -3.63 98.4 -3.67 98.12 -3.67L97.58 -3.56C96.93 -2.55 96.1 -1.83 95.1 -1.4C94.09 -0.97 93.01 -0.75 91.86 -0.75C90.14 -0.75 88.7 -1.2 87.55 -2.1C86.4 -3 85.48 -4.13 84.8 -5.5C84.12 -6.86 83.61 -8.36 83.29 -9.97C82.97 -11.59 82.81 -13.08 82.81 -14.45C82.81 -15.17 82.88 -15.89 83.02 -16.6C83.16 -17.32 83.24 -18.01 83.24 -18.65C83.24 -19.23 82.99 -19.46 82.48 -19.35C81.98 -19.25 81.69 -19.37 81.62 -19.73C82.05 -20.23 82.34 -20.92 82.48 -21.78C82.63 -22.64 82.72 -23.56 82.75 -24.53C82.79 -25.5 82.82 -26.45 82.86 -27.39C82.9 -28.32 83.02 -29.11 83.24 -29.76C83.74 -30.19 84.28 -30.5 84.85 -30.67C85.43 -30.85 85.9 -31.23 86.26 -31.81C86.69 -31.73 87.12 -31.68 87.55 -31.65C87.98 -31.61 88.41 -31.59 88.84 -31.59C90.42 -31.59 91.97 -31.77 93.48 -32.13C94.99 -32.49 96.57 -32.67 98.22 -32.67C98.94 -32.67 99.48 -32.63 99.84 -32.56C99.98 -32.71 100.07 -32.94 100.11 -33.26C100.15 -33.59 100.31 -33.75 100.6 -33.75C102.32 -33.75 103.99 -33.98 105.61 -34.45C107.23 -34.92 108.84 -35.45 110.46 -36.07C112.08 -36.68 113.7 -37.22 115.31 -37.68C116.93 -38.15 118.6 -38.38 120.33 -38.38L121.51 -38.38C121.94 -39.25 122.52 -40.18 123.24 -41.19C123.96 -42.19 124.32 -43.2 124.32 -44.21C124.32 -44.78 124.15 -45.28 123.83 -45.72C123.51 -46.15 123.09 -46.54 122.59 -46.9C121.66 -47.05 120.7 -47.12 119.73 -47.12C118.76 -47.12 117.81 -47.3 116.88 -47.66C115.65 -47.08 114.47 -46.7 113.32 -46.52C112.17 -46.34 111.05 -46.22 109.98 -46.15C108.9 -46.07 107.8 -46 106.69 -45.93C105.57 -45.86 104.44 -45.68 103.29 -45.39C102.29 -45.1 101.26 -44.92 100.22 -44.85C99.18 -44.78 98.12 -44.75 97.04 -44.75C95.96 -44.75 94.88 -44.76 93.8 -44.8C92.73 -44.84 91.65 -44.78 90.57 -44.64C90.42 -44.28 90.17 -44.04 89.81 -43.94C89.45 -43.83 89.1 -43.77 88.74 -43.77C88.38 -43.77 87.96 -43.81 87.5 -43.88C87.03 -43.95 86.62 -44.06 86.26 -44.21C85.9 -45.07 85.66 -45.93 85.55 -46.79C85.45 -47.66 85.39 -48.59 85.39 -49.6C85.39 -50.53 85.43 -51.48 85.5 -52.45C85.57 -53.42 85.68 -54.41 85.82 -55.42C87.26 -56.64 88.93 -57.59 90.84 -58.28C92.74 -58.96 94.74 -59.57 96.82 -60.11C98.91 -60.65 100.97 -61.21 103.02 -61.78C105.07 -62.36 106.96 -63.07 108.68 -63.94C109.33 -63.72 110.08 -63.61 110.95 -63.61C112.02 -63.61 113.16 -63.78 114.34 -64.1C115.53 -64.42 116.63 -64.87 117.63 -65.45C119.79 -65.3 121.94 -65.3 124.1 -65.45C126.26 -65.59 128.41 -65.66 130.57 -65.66C131.36 -65.66 132.17 -65.64 133 -65.61C133.82 -65.57 134.63 -65.52 135.42 -65.45C136.21 -65.81 137.04 -66.08 137.9 -66.26C138.76 -66.43 139.59 -66.7 140.38 -67.06C140.38 -67.64 140.63 -68 141.14 -68.14Z M195.15 -76.77C195.15 -78.42 195.03 -80.24 194.78 -82.21C194.52 -84.19 194.11 -85.97 193.54 -87.55C192.67 -87.91 191.88 -88.09 191.16 -88.09C189.94 -88.09 189.33 -87.41 189.33 -86.04L185.45 -86.04C184.37 -83.88 183.55 -81.64 182.97 -79.3C182.4 -76.97 181.93 -74.58 181.57 -72.13C180.49 -70.91 179.77 -69.47 179.41 -67.82C179.05 -66.17 178.87 -64.51 178.87 -62.86C178.51 -62.43 178.12 -62 177.69 -61.57C177.26 -61.13 177.04 -60.63 177.04 -60.06C177.04 -59.77 177.09 -59.5 177.2 -59.25C177.31 -59 177.36 -58.73 177.36 -58.44C177.36 -57.86 177.18 -57.23 176.82 -56.55C176.47 -55.87 176.18 -55.28 175.96 -54.77C175.24 -53.12 174.61 -51.45 174.08 -49.76C173.54 -48.07 173.19 -46.4 173.05 -44.75C171.97 -43.09 171.13 -41.35 170.52 -39.52C169.91 -37.68 169.6 -35.8 169.6 -33.86C169.03 -34 168.7 -33.98 168.63 -33.8C168.56 -33.62 168.34 -33.39 167.98 -33.1C167.84 -31.59 167.48 -30.3 166.91 -29.22C166.33 -28.14 165.68 -26.99 164.96 -25.77C164.96 -24.98 164.84 -24.21 164.59 -23.45C164.34 -22.7 164.17 -21.92 164.1 -21.13C163.45 -20.56 162.9 -19.78 162.43 -18.81C161.96 -17.84 161.46 -16.87 160.92 -15.9C160.38 -14.93 159.79 -14.09 159.14 -13.37C158.5 -12.65 157.74 -12.26 156.88 -12.18C156.59 -12.61 156.37 -13.1 156.23 -13.64C156.09 -14.18 155.93 -14.72 155.75 -15.26C155.57 -15.8 155.35 -16.32 155.1 -16.82C154.85 -17.32 154.51 -17.72 154.07 -18.01C154.29 -18.44 154.4 -18.87 154.4 -19.3C154.4 -19.8 154.25 -20.31 153.97 -20.81C153.68 -21.31 153.46 -21.78 153.32 -22.21C152.89 -24.22 152.51 -26.2 152.19 -28.14C151.86 -30.08 151.52 -32.02 151.16 -33.96C149.87 -40.72 148.38 -47.42 146.69 -54.07C145 -60.72 142.57 -67.14 139.41 -73.32L135.96 -73.32C135.75 -72.6 135.39 -72.02 134.88 -71.59C134.38 -71.16 134.09 -70.55 134.02 -69.76C134.81 -68.18 135.53 -66.6 136.18 -65.02C136.82 -63.43 137.65 -61.92 138.66 -60.49C138.37 -60.27 138.22 -59.98 138.22 -59.62C138.22 -59.48 138.39 -59.28 138.71 -59.03C139.03 -58.78 139.27 -58.4 139.41 -57.9C139.55 -57.18 139.64 -56.5 139.68 -55.85C139.72 -55.2 139.77 -54.57 139.84 -53.96C139.91 -53.35 140.04 -52.74 140.22 -52.13C140.4 -51.52 140.78 -50.85 141.35 -50.14C141.14 -49.78 141.03 -49.45 141.03 -49.17C141.03 -48.81 141.08 -48.45 141.19 -48.09C141.3 -47.73 141.35 -47.37 141.35 -47.01C141.35 -46.51 141.21 -46.11 140.92 -45.82C141.57 -44.96 142.02 -43.92 142.27 -42.7C142.52 -41.47 142.72 -40.23 142.86 -38.98C143 -37.72 143.18 -36.5 143.4 -35.31C143.62 -34.12 144.08 -33.14 144.8 -32.35C144.73 -31.99 144.68 -31.61 144.64 -31.21C144.6 -30.82 144.59 -30.44 144.59 -30.08C144.59 -28.36 144.89 -26.67 145.5 -25.01C146.11 -23.36 146.56 -21.64 146.85 -19.84C147.28 -16.75 147.55 -13.64 147.66 -10.51C147.77 -7.39 148.11 -4.2 148.68 -0.97C149.83 -0.4 150.84 0.34 151.7 1.24C152.56 2.14 153.5 2.95 154.51 3.67C155.94 3.38 157.27 2.8 158.5 1.94C159.72 1.08 160.87 0.07 161.95 -1.08C163.02 -2.23 164.08 -3.38 165.13 -4.53C166.17 -5.68 167.26 -6.68 168.41 -7.55C168.41 -8.34 168.63 -9.11 169.06 -9.87C169.49 -10.62 169.71 -11.43 169.71 -12.29C169.71 -12.58 169.67 -12.79 169.6 -12.94C170.97 -14.23 171.94 -15.87 172.51 -17.84C173.09 -19.82 173.66 -21.67 174.24 -23.4C175.39 -24.76 176.29 -26.31 176.93 -28.03C177.58 -29.76 178.17 -31.57 178.71 -33.48C179.25 -35.38 179.77 -37.27 180.27 -39.14C180.78 -41.01 181.46 -42.73 182.32 -44.31C182.83 -47.48 183.6 -50.51 184.64 -53.42C185.68 -56.34 186.56 -59.37 187.28 -62.54C188.15 -62.89 188.86 -63.38 189.44 -63.99C190.01 -64.6 190.55 -65.23 191.06 -65.88L192.57 -67.93C193.07 -68.65 193.64 -69.26 194.29 -69.76C194.65 -70.98 194.88 -72.15 194.99 -73.26C195.1 -74.38 195.15 -75.55 195.15 -76.77Z M263.19 -68.57C263.19 -69.29 263.03 -69.92 262.7 -70.46C262.38 -71 262.18 -71.66 262.11 -72.45C261.25 -72.31 260.37 -72.33 259.47 -72.51C258.57 -72.69 257.69 -72.78 256.83 -72.78C256.04 -72.78 255.32 -72.67 254.67 -72.45C252.87 -72.81 251.04 -73.06 249.17 -73.21C247.3 -73.35 245.43 -73.43 243.56 -73.43C241.41 -73.43 239.27 -73.39 237.15 -73.32C235.03 -73.25 232.89 -73.21 230.73 -73.21C229.22 -72.56 227.61 -72.24 225.88 -72.24C225.02 -72.24 224.16 -72.29 223.29 -72.4C222.43 -72.51 221.57 -72.63 220.71 -72.78C220.35 -72.49 220.08 -72.24 219.9 -72.02C219.72 -71.81 219.34 -71.7 218.77 -71.7C217.54 -71.56 216.47 -71.38 215.53 -71.16C214.6 -70.95 213.72 -70.68 212.89 -70.35C212.06 -70.03 211.24 -69.63 210.41 -69.17C209.58 -68.7 208.67 -68.18 207.66 -67.6C207.01 -67.17 206.31 -66.76 205.56 -66.36C204.8 -65.97 204.03 -65.66 203.24 -65.45C203.17 -65.02 203.02 -64.62 202.81 -64.26L202.16 -63.18L198.6 -63.18C198.03 -62.9 197.6 -62.5 197.31 -62C197.02 -61.49 196.59 -61.1 196.02 -60.81C195.94 -60.16 195.91 -59.48 195.91 -58.76L195.91 -56.71C195.91 -54.63 195.98 -52.54 196.12 -50.46C196.27 -48.38 196.34 -46.29 196.34 -44.21L196.34 -43.88C195.76 -42.52 195.23 -41.19 194.72 -39.89C194.22 -38.6 193.61 -37.34 192.89 -36.12L192.89 -35.36C192.89 -34.5 193 -33.77 193.21 -33.15C193.43 -32.54 193.68 -31.84 193.97 -31.05C193.82 -30.55 193.73 -29.97 193.7 -29.33C193.66 -28.68 193.61 -28.03 193.54 -27.39C193.46 -26.74 193.34 -26.11 193.16 -25.5C192.98 -24.89 192.75 -24.4 192.46 -24.04C192.75 -23.18 192.89 -22.17 192.89 -21.02C192.89 -19.87 192.82 -18.74 192.67 -17.63C192.53 -16.51 192.46 -15.38 192.46 -14.23C192.46 -13.44 192.53 -12.76 192.67 -12.18C192.82 -11.61 193 -10.93 193.21 -10.14C193.28 -10.06 193.32 -9.96 193.32 -9.81C193.32 -9.45 193.18 -9.24 192.89 -9.16C192.6 -9.09 192.46 -8.88 192.46 -8.52L192.46 -8.19C193.18 -6.33 193.86 -4.38 194.51 -2.37C195.15 -0.36 196 1.51 197.04 3.23C198.08 4.96 199.36 6.42 200.87 7.6C202.38 8.79 204.35 9.45 206.8 9.6C206.65 10.24 206.85 10.62 207.39 10.73C207.93 10.84 208.34 11.07 208.63 11.43C209.64 11.43 210.57 11.37 211.43 11.27C212.3 11.16 213.16 11.11 214.02 11.11C215.03 11.11 215.96 11.21 216.83 11.43C218.69 10.42 220.58 9.38 222.49 8.3C224.39 7.22 226.39 6.36 228.47 5.71C229.05 5 229.66 4.37 230.3 3.83C230.95 3.29 231.67 2.73 232.46 2.16C233.18 1.87 233.65 1.62 233.86 1.4C234.94 0.54 236.04 -0.7 237.15 -2.32C238.26 -3.94 239.32 -5.64 240.33 -7.44C241.34 -9.24 242.27 -11.03 243.13 -12.83C244 -14.63 244.75 -16.17 245.4 -17.47C244.89 -18.33 244.48 -19.25 244.16 -20.22C243.83 -21.19 243.39 -22.07 242.81 -22.86C242.45 -22.71 242.07 -22.61 241.68 -22.53C241.28 -22.46 240.91 -22.43 240.55 -22.43C240.19 -22.43 239.85 -22.46 239.52 -22.53C239.2 -22.61 238.86 -22.71 238.5 -22.86C238.07 -21.85 237.44 -21.02 236.61 -20.38C235.78 -19.73 235.01 -19.01 234.29 -18.22L234.29 -15.09C233.36 -14.52 232.66 -13.73 232.19 -12.72C231.72 -11.72 231.24 -10.71 230.73 -9.7C229.94 -9.42 229.12 -8.93 228.25 -8.25C227.39 -7.57 226.55 -6.86 225.72 -6.15C224.89 -5.43 224.14 -4.8 223.46 -4.26C222.77 -3.72 222.22 -3.45 221.79 -3.45C221.5 -3.45 221.23 -3.49 220.98 -3.56C220.73 -3.63 220.46 -3.67 220.17 -3.67L219.63 -3.56C218.98 -2.55 218.16 -1.83 217.15 -1.4C216.14 -0.97 215.06 -0.75 213.91 -0.75C212.19 -0.75 210.75 -1.2 209.6 -2.1C208.45 -3 207.54 -4.13 206.85 -5.5C206.17 -6.86 205.67 -8.36 205.34 -9.97C205.02 -11.59 204.86 -13.08 204.86 -14.45C204.86 -15.17 204.93 -15.89 205.07 -16.6C205.22 -17.32 205.29 -18.01 205.29 -18.65C205.29 -19.23 205.04 -19.46 204.53 -19.35C204.03 -19.25 203.74 -19.37 203.67 -19.73C204.1 -20.23 204.39 -20.92 204.53 -21.78C204.68 -22.64 204.77 -23.56 204.8 -24.53C204.84 -25.5 204.88 -26.45 204.91 -27.39C204.95 -28.32 205.07 -29.11 205.29 -29.76C205.79 -30.19 206.33 -30.5 206.91 -30.67C207.48 -30.85 207.95 -31.23 208.31 -31.81C208.74 -31.73 209.17 -31.68 209.6 -31.65C210.03 -31.61 210.46 -31.59 210.9 -31.59C212.48 -31.59 214.02 -31.77 215.53 -32.13C217.04 -32.49 218.62 -32.67 220.28 -32.67C220.99 -32.67 221.53 -32.63 221.89 -32.56C222.04 -32.71 222.13 -32.94 222.16 -33.26C222.2 -33.59 222.36 -33.75 222.65 -33.75C224.37 -33.75 226.04 -33.98 227.66 -34.45C229.28 -34.92 230.9 -35.45 232.51 -36.07C234.13 -36.68 235.75 -37.22 237.37 -37.68C238.98 -38.15 240.65 -38.38 242.38 -38.38L243.56 -38.38C244 -39.25 244.57 -40.18 245.29 -41.19C246.01 -42.19 246.37 -43.2 246.37 -44.21C246.37 -44.78 246.21 -45.28 245.88 -45.72C245.56 -46.15 245.15 -46.54 244.64 -46.9C243.71 -47.05 242.76 -47.12 241.79 -47.12C240.82 -47.12 239.86 -47.3 238.93 -47.66C237.71 -47.08 236.52 -46.7 235.37 -46.52C234.22 -46.34 233.11 -46.22 232.03 -46.15C230.95 -46.07 229.85 -46 228.74 -45.93C227.63 -45.86 226.49 -45.68 225.34 -45.39C224.34 -45.1 223.31 -44.92 222.27 -44.85C221.23 -44.78 220.17 -44.75 219.09 -44.75C218.01 -44.75 216.93 -44.76 215.86 -44.8C214.78 -44.84 213.7 -44.78 212.62 -44.64C212.48 -44.28 212.23 -44.04 211.87 -43.94C211.51 -43.83 211.15 -43.77 210.79 -43.77C210.43 -43.77 210.01 -43.81 209.55 -43.88C209.08 -43.95 208.67 -44.06 208.31 -44.21C207.95 -45.07 207.71 -45.93 207.61 -46.79C207.5 -47.66 207.45 -48.59 207.45 -49.6C207.45 -50.53 207.48 -51.48 207.55 -52.45C207.62 -53.42 207.73 -54.41 207.88 -55.42C209.31 -56.64 210.99 -57.59 212.89 -58.28C214.79 -58.96 216.79 -59.57 218.87 -60.11C220.96 -60.65 223.03 -61.21 225.07 -61.78C227.12 -62.36 229.01 -63.07 230.73 -63.94C231.38 -63.72 232.14 -63.61 233 -63.61C234.08 -63.61 235.21 -63.78 236.39 -64.1C237.58 -64.42 238.68 -64.87 239.68 -65.45C241.84 -65.3 244 -65.3 246.15 -65.45C248.31 -65.59 250.47 -65.66 252.62 -65.66C253.41 -65.66 254.22 -65.64 255.05 -65.61C255.87 -65.57 256.68 -65.52 257.47 -65.45C258.26 -65.81 259.09 -66.08 259.95 -66.26C260.82 -66.43 261.64 -66.7 262.43 -67.06C262.43 -67.64 262.68 -68 263.19 -68.14Z M395.91 -18.76C395.7 -19.41 395.29 -19.84 394.67 -20.05C394.06 -20.27 393.4 -20.47 392.68 -20.65C391.96 -20.83 391.28 -21.01 390.63 -21.19C389.98 -21.37 389.48 -21.71 389.12 -22.21C385.02 -21.28 380.93 -20.76 376.83 -20.65C372.73 -20.54 368.6 -20.31 364.43 -19.95C363.35 -19.8 362.26 -19.7 361.14 -19.62C360.03 -19.55 358.97 -19.37 357.96 -19.08C357.53 -19.01 357.12 -18.9 356.72 -18.76C356.33 -18.62 355.95 -18.55 355.59 -18.55C355.09 -18.62 354.71 -18.8 354.46 -19.08C354.21 -19.37 353.83 -19.52 353.33 -19.52L353 -19.52C352.43 -19.08 351.78 -18.8 351.06 -18.65C350.34 -18.51 349.66 -18.33 349.01 -18.11C346.28 -18.04 343.55 -17.84 340.82 -17.52C338.09 -17.2 335.34 -16.86 332.57 -16.5C329.8 -16.14 327.05 -15.81 324.32 -15.53C321.59 -15.24 318.86 -15.17 316.13 -15.31L314.4 -15.42C314.4 -15.71 314.22 -15.85 313.86 -15.85L312.89 -15.85C313.04 -16.5 312.91 -17.02 312.52 -17.41C312.12 -17.81 311.67 -18.08 311.17 -18.22C311.1 -18.44 311.06 -18.72 311.06 -19.08C311.13 -19.73 311.29 -20.34 311.55 -20.92C311.8 -21.49 311.99 -22.14 312.14 -22.86C317.1 -26.74 321.91 -30.76 326.59 -34.93C331.26 -39.1 335.93 -43.31 340.6 -47.55C341.32 -48.99 342.08 -50.44 342.87 -51.92C343.66 -53.39 344.39 -54.9 345.08 -56.44C345.76 -57.99 346.35 -59.55 346.86 -61.13C347.36 -62.72 347.65 -64.33 347.72 -65.99L347.72 -67.82C345.85 -70.41 343.77 -72.67 341.47 -74.61C340.32 -74.47 339.36 -74.56 338.61 -74.88C337.85 -75.2 337.01 -75.58 336.07 -76.01C334.42 -75.94 332.79 -75.99 331.17 -76.17C329.55 -76.35 327.92 -76.48 326.26 -76.55C323.89 -76.7 321.55 -76.52 319.25 -76.01C316.95 -75.51 314.62 -75.29 312.25 -75.37C310.81 -75.44 309.39 -75.35 307.99 -75.1C306.59 -74.84 305.18 -74.58 303.78 -74.29C302.38 -74 300.98 -73.73 299.58 -73.48C298.18 -73.23 296.76 -73.14 295.32 -73.21C294.31 -72.63 293.27 -72.15 292.19 -71.75C291.11 -71.36 290.04 -71.2 288.96 -71.27C288.6 -71.27 288.29 -71.29 288.04 -71.32C287.79 -71.36 287.48 -71.45 287.12 -71.59C286.55 -70.8 285.76 -70.26 284.75 -69.98C283.75 -69.69 282.78 -69.54 281.84 -69.54C280.91 -69.62 280.01 -69.78 279.15 -70.03C278.28 -70.28 277.46 -70.58 276.67 -70.95C275.59 -70.51 274.6 -69.9 273.7 -69.11C272.8 -68.32 271.92 -67.55 271.06 -66.79C270.2 -66.04 269.28 -65.37 268.31 -64.8C267.34 -64.22 266.21 -63.97 264.91 -64.04L263.94 -64.04C263.15 -63.4 262.29 -62.86 261.36 -62.43L258.55 -61.13C257.62 -60.7 256.74 -60.18 255.91 -59.57C255.08 -58.96 254.42 -58.19 253.92 -57.25L253.92 -55.53C253.84 -55.02 253.83 -54.52 253.86 -54.02C253.9 -53.51 254.02 -53.05 254.24 -52.62C254.89 -52.69 255.43 -52.56 255.86 -52.24C256.29 -51.92 256.7 -51.56 257.1 -51.16C257.49 -50.77 257.92 -50.37 258.39 -49.97C258.86 -49.58 259.49 -49.31 260.28 -49.17C260.56 -49.24 260.96 -49.44 261.46 -49.76C261.97 -50.08 262.49 -50.41 263.03 -50.73C263.57 -51.05 264.03 -51.36 264.43 -51.65C264.82 -51.93 265.09 -52.08 265.24 -52.08C265.38 -52.08 265.54 -52.06 265.72 -52.02C265.9 -51.99 266.06 -51.97 266.21 -51.97C266.42 -51.97 266.64 -52.06 266.85 -52.24C267.07 -52.42 267.32 -52.65 267.61 -52.94C267.9 -53.23 268.24 -53.48 268.63 -53.69C269.03 -53.91 269.44 -54.02 269.87 -54.02L270.84 -53.69C270.99 -53.19 271.09 -52.67 271.17 -52.13C271.24 -51.59 271.27 -51.03 271.27 -50.46C271.2 -49.38 271.06 -48.3 270.84 -47.23C270.63 -46.15 270.48 -45 270.41 -43.77C270.27 -42.98 270.38 -42.16 270.74 -41.29C270.38 -40.86 270.11 -40.38 269.93 -39.84C269.75 -39.3 269.62 -38.74 269.55 -38.17C269.48 -36.95 269.6 -35.76 269.93 -34.61C270.25 -33.46 270.38 -32.27 270.3 -31.05C270.23 -30.26 270.11 -29.47 269.93 -28.68C269.75 -27.89 269.66 -27.1 269.66 -26.31C269.51 -24.87 269.6 -23.45 269.93 -22.05C270.25 -20.65 270.38 -19.23 270.3 -17.79C270.3 -16.86 270.16 -16.07 269.87 -15.42C270.95 -13.69 271.72 -11.61 272.19 -9.16C272.66 -6.72 273.14 -4.49 273.65 -2.48C274.51 -1.83 275.3 -1.06 276.02 -0.16C276.74 0.74 277.49 1.62 278.28 2.48C279.07 3.34 279.94 4.08 280.87 4.69C281.8 5.3 282.88 5.64 284.11 5.71C284.82 5.71 285.61 5.61 286.48 5.39C286.62 3.95 287.02 2.62 287.66 1.4C288.31 0.18 288.67 -1.15 288.74 -2.59C288.89 -2.95 288.89 -3.23 288.74 -3.45C288.53 -3.59 288.38 -3.76 288.31 -3.94C288.24 -4.12 288.13 -4.31 287.99 -4.53C288.06 -4.82 287.92 -4.96 287.56 -4.96L286.69 -4.96C286.55 -4.96 286.41 -5 286.26 -5.07C286.12 -5.14 286.08 -5.25 286.15 -5.39C285.15 -6.97 284.34 -8.64 283.73 -10.4C283.12 -12.17 282.6 -13.98 282.16 -15.85C281.73 -17.72 281.37 -19.61 281.09 -21.51C280.8 -23.41 280.48 -25.23 280.12 -26.95C280.69 -28.97 281.05 -31.12 281.19 -33.42C281.27 -35.29 281.27 -37.13 281.19 -38.92C281.12 -40.72 281.12 -42.55 281.19 -44.42C281.27 -46.65 281.7 -48.91 282.49 -51.21C282.63 -51.57 282.76 -51.9 282.87 -52.18C282.97 -52.47 283.06 -52.8 283.13 -53.16C283.21 -53.23 283.24 -53.3 283.24 -53.37C283.24 -53.44 283.28 -53.51 283.35 -53.59C283.35 -54.02 283.26 -54.43 283.08 -54.83C282.9 -55.22 282.81 -55.64 282.81 -56.07C282.81 -56.21 282.88 -56.43 283.03 -56.71C284.97 -57.65 286.94 -58.6 288.96 -59.57C290.97 -60.54 293.13 -60.99 295.43 -60.92C295.71 -60.92 295.98 -60.88 296.23 -60.81C296.49 -60.74 296.76 -60.7 297.04 -60.7C298.55 -61.57 300.12 -62.16 301.73 -62.48C303.35 -62.81 304.99 -63.02 306.64 -63.13C308.29 -63.24 309.96 -63.36 311.65 -63.51C313.34 -63.65 314.98 -63.97 316.56 -64.48C318.14 -64.33 319.7 -64.3 321.25 -64.37C322.79 -64.44 324.29 -64.44 325.72 -64.37C327.38 -64.22 328.98 -63.99 330.52 -63.67C332.07 -63.34 333.45 -62.68 334.67 -61.67C334.1 -58.8 332.88 -56.21 331.01 -53.91C329.14 -51.61 326.95 -49.7 324.43 -48.2C324.29 -47.62 324.03 -47.14 323.67 -46.74C323.32 -46.34 322.92 -45.99 322.49 -45.66C322.06 -45.34 321.64 -45.01 321.25 -44.69C320.85 -44.37 320.55 -43.95 320.33 -43.45C318.97 -42.73 317.69 -41.91 316.5 -40.97C315.32 -40.04 314.13 -39.08 312.95 -38.11C311.76 -37.14 310.57 -36.19 309.39 -35.26C308.2 -34.32 306.93 -33.53 305.56 -32.89C304.41 -31.38 303.19 -29.94 301.9 -28.57C300.6 -27.21 299.24 -25.91 297.8 -24.69C297.51 -23.04 297.22 -21.42 296.94 -19.84C296.65 -18.26 296.4 -16.64 296.18 -14.99C296.97 -14.56 297.47 -13.91 297.69 -13.05C297.91 -12.18 298.27 -11.39 298.77 -10.67C299.49 -9.6 300.53 -8.68 301.9 -7.92C303.26 -7.17 304.73 -6.52 306.32 -5.98C307.9 -5.44 309.48 -5.03 311.06 -4.74C312.64 -4.46 314.04 -4.28 315.27 -4.2C317.13 -4.13 318.98 -4.2 320.82 -4.42C322.65 -4.64 324.39 -5.14 326.05 -5.93C326.33 -5.43 326.89 -5.16 327.72 -5.12C328.54 -5.09 329.25 -4.92 329.82 -4.64C330.54 -5.21 331.29 -5.61 332.08 -5.82C332.88 -6.04 333.68 -6.2 334.51 -6.31C335.34 -6.42 336.16 -6.56 336.99 -6.74C337.82 -6.92 338.59 -7.22 339.31 -7.66C339.96 -7.58 340.6 -7.66 341.25 -7.87C341.9 -8.09 342.58 -8.19 343.3 -8.19C343.59 -8.19 343.84 -8.1 344.05 -7.92C344.27 -7.75 344.48 -7.58 344.7 -7.44C346.86 -8.3 349.17 -8.97 351.65 -9.43C354.13 -9.9 356.67 -10.3 359.26 -10.62C361.84 -10.94 364.43 -11.21 367.02 -11.43C369.61 -11.64 372.05 -11.93 374.35 -12.29C375 -12.44 375.63 -12.49 376.24 -12.45C376.84 -12.42 377.51 -12.47 378.23 -12.61C380.32 -12.9 382.35 -13.37 384.32 -14.02C386.3 -14.66 388.4 -14.95 390.63 -14.88C390.99 -14.88 391.33 -14.86 391.66 -14.83C391.98 -14.79 392.32 -14.74 392.68 -14.66C393.47 -15.17 394.17 -15.71 394.78 -16.28C395.39 -16.86 395.77 -17.68 395.91 -18.76Z M408.42 -93.91C408.42 -94.63 408.37 -95.33 408.26 -96.01C408.15 -96.7 407.85 -97.32 407.34 -97.9C407.77 -98.62 407.99 -99.41 407.99 -100.27C407.99 -100.56 407.92 -100.97 407.77 -101.51C407.63 -102.05 407.47 -102.63 407.29 -103.24C407.11 -103.85 406.93 -104.42 406.75 -104.96C406.57 -105.5 406.41 -105.88 406.26 -106.09C405.76 -107.1 405.01 -107.75 404 -108.04C402.99 -108.32 401.99 -108.47 400.98 -108.47L397.75 -108.47C397.03 -107.75 396.53 -106.87 396.24 -105.83C395.95 -104.78 395.81 -103.76 395.81 -102.75C395.81 -101.53 396.06 -100.45 396.56 -99.52C396.27 -99.16 396.09 -98.76 396.02 -98.33C395.95 -97.9 395.91 -97.47 395.91 -97.04C395.91 -96.18 396.02 -95.29 396.24 -94.4C396.45 -93.5 396.56 -92.62 396.56 -91.75C396.56 -91.25 396.44 -90.53 396.18 -89.6C395.93 -88.66 395.74 -87.91 395.59 -87.33C395.23 -85.75 394.96 -84.19 394.78 -82.64C394.6 -81.1 394.51 -79.5 394.51 -77.85L394.51 -76.12C394.51 -75.55 394.58 -74.97 394.73 -74.4C394.15 -72.89 393.81 -71.34 393.7 -69.76C393.6 -68.18 393.36 -66.6 393 -65.02C392.86 -64.37 392.68 -63.74 392.46 -63.13C392.25 -62.52 392.07 -61.89 391.92 -61.24L391.92 -61.03C391.92 -60.74 392 -60.52 392.14 -60.38C392.28 -60.24 392.36 -60.02 392.36 -59.73L392.36 -59.3C391.78 -56.93 391.13 -54.54 390.42 -52.13C389.7 -49.72 389.34 -47.26 389.34 -44.75L389.34 -44.21C388.98 -43.85 388.73 -43.42 388.58 -42.91C388.44 -42.41 388.31 -41.89 388.21 -41.35C388.1 -40.81 387.97 -40.31 387.83 -39.84C387.68 -39.37 387.4 -38.99 386.97 -38.71C387.18 -37.92 387.29 -37.09 387.29 -36.23C387.29 -36.08 387.31 -35.94 387.34 -35.8C387.38 -35.65 387.36 -35.51 387.29 -35.36C387.14 -34.79 386.98 -34.25 386.8 -33.75C386.62 -33.24 386.46 -32.74 386.32 -32.24C385.82 -30.58 385.37 -28.95 384.97 -27.33C384.58 -25.72 384.38 -24.04 384.38 -22.32C384.38 -21.96 384.4 -21.55 384.43 -21.08C384.47 -20.61 384.56 -20.2 384.7 -19.84C384.05 -19.26 383.57 -18.56 383.25 -17.74C382.92 -16.91 382.67 -16.05 382.49 -15.15C382.31 -14.25 382.19 -13.32 382.11 -12.35C382.04 -11.37 381.97 -10.53 381.9 -9.81C381.11 -8.37 380.64 -6.68 380.5 -4.74C380.35 -2.8 380.03 -1.01 379.53 0.65C379.6 1.01 379.71 1.35 379.85 1.67C379.99 1.99 380.06 2.37 380.06 2.8C380.06 2.95 380.01 3.2 379.9 3.56C379.8 3.92 379.67 4.28 379.53 4.64L379.09 5.71C378.95 6.07 378.84 6.29 378.77 6.36C379.42 8.01 379.8 9.76 379.9 11.59C380.01 13.42 380.32 15.2 380.82 16.93C381.68 17.72 382.45 18.6 383.14 19.57C383.82 20.54 384.45 21.56 385.02 22.64C385.6 22.57 386.08 22.62 386.48 22.8C386.88 22.98 387.25 23.18 387.61 23.4L388.69 24.04C389.05 24.26 389.52 24.37 390.09 24.37C390.38 24.37 390.74 24.3 391.17 24.15C391.53 24.3 391.69 24.56 391.66 24.96C391.62 25.36 391.78 25.55 392.14 25.55C392.86 25.55 393.27 25.16 393.38 24.37C393.49 23.58 393.54 22.93 393.54 22.43L393.54 21.35C393.54 21.06 393.51 20.7 393.43 20.27C394.23 19.62 394.62 18.87 394.62 18.01C394.62 17.57 394.51 17.07 394.3 16.5C394.15 16.35 393.94 16.28 393.65 16.28C393.43 16.28 393.24 16.32 393.06 16.39C392.88 16.46 392.72 16.5 392.57 16.5C392.36 16.5 392.14 16.39 391.92 16.17C391.78 15.09 391.42 14.11 390.85 13.21C390.27 12.31 389.88 11.32 389.66 10.24C390.02 8.73 390.25 7.17 390.36 5.55C390.47 3.94 390.52 2.3 390.52 0.65C390.52 -0.14 390.47 -1.06 390.36 -2.1C390.25 -3.14 390.27 -4.03 390.42 -4.74C390.63 -6.18 390.99 -7.62 391.49 -9.06C392 -10.49 392.43 -11.93 392.79 -13.37C393.36 -15.17 393.81 -16.93 394.14 -18.65C394.46 -20.38 394.66 -22.17 394.73 -24.04C395.66 -25.48 396.17 -26.81 396.24 -28.03C396.31 -29.26 396.38 -30.69 396.45 -32.35L396.45 -33.21C396.45 -33.5 396.49 -33.78 396.56 -34.07C396.7 -34.57 396.88 -35.04 397.1 -35.47L397.85 -36.87C398.14 -37.38 398.38 -37.93 398.56 -38.55C398.74 -39.16 398.83 -39.86 398.83 -40.65C398.83 -41.01 398.75 -41.55 398.61 -42.27C399.76 -45 400.59 -47.96 401.09 -51.16C401.59 -54.36 402.31 -57.47 403.25 -60.49L403.25 -60.92C403.25 -61.28 403.16 -61.6 402.98 -61.89C402.8 -62.18 402.71 -62.5 402.71 -62.86L402.71 -63.18C403.21 -64.76 403.61 -66.38 403.89 -68.03L404.76 -72.99C405.04 -74.65 405.37 -76.28 405.73 -77.9C406.09 -79.52 406.62 -81.04 407.34 -82.48C407.2 -82.84 407.09 -83.22 407.02 -83.61C406.95 -84.01 406.91 -84.42 406.91 -84.85C406.91 -85.21 406.95 -85.46 407.02 -85.61C407.24 -87.05 407.52 -88.43 407.88 -89.76C408.24 -91.09 408.42 -92.47 408.42 -93.91Z M528.42 -83.24C528.42 -83.74 528.41 -84.23 528.37 -84.69C528.33 -85.16 528.28 -85.61 528.21 -86.04C526.99 -87.84 525.46 -89.27 523.63 -90.35C521.79 -91.43 519.84 -92.29 517.75 -92.94C516.53 -92.37 515.45 -91.81 514.52 -91.27C513.58 -90.73 512.36 -90.39 510.85 -90.25C509.63 -90.82 508.48 -91.52 507.4 -92.35C506.32 -93.17 505.24 -94.02 504.17 -94.88C504.02 -94.88 503.82 -94.9 503.57 -94.94C503.32 -94.97 503.16 -95.1 503.09 -95.31C500.64 -95.24 498.34 -95.01 496.19 -94.61C494.03 -94.22 491.93 -93.71 489.88 -93.1C487.83 -92.49 485.78 -91.77 483.73 -90.95C481.68 -90.12 479.58 -89.24 477.43 -88.3C476.28 -87.8 475.11 -87.37 473.92 -87.01C472.74 -86.65 471.64 -86.18 470.63 -85.61C470.27 -85.47 469.9 -85.12 469.5 -84.58C469.11 -84.05 468.73 -83.6 468.37 -83.24C467.15 -83.02 466.02 -82.64 464.97 -82.1C463.93 -81.57 462.91 -80.99 461.9 -80.38C460.89 -79.77 459.87 -79.19 458.83 -78.65C457.78 -78.12 456.69 -77.74 455.54 -77.52C454.46 -76.37 453.29 -75.37 452.03 -74.5C450.78 -73.64 449.48 -72.8 448.15 -71.97C446.82 -71.14 445.53 -70.28 444.27 -69.38C443.01 -68.48 441.88 -67.42 440.88 -66.2C439.29 -65.41 437.89 -64.39 436.67 -63.13C435.45 -61.87 434.01 -60.85 432.36 -60.06C431.06 -58.83 429.9 -57.72 428.85 -56.71C427.81 -55.71 426.91 -54.68 426.16 -53.64C425.4 -52.6 424.83 -51.5 424.43 -50.35C424.04 -49.2 423.84 -47.84 423.84 -46.25C423.84 -45.61 423.91 -44.94 424.06 -44.26C424.2 -43.58 424.38 -42.91 424.59 -42.27C425.53 -42.05 426.19 -41.55 426.59 -40.76C426.98 -39.97 427.47 -39.28 428.04 -38.71C429.7 -38.56 431.23 -38.24 432.63 -37.74C434.03 -37.23 435.48 -36.69 436.99 -36.12C437.42 -36.26 437.87 -36.39 438.34 -36.5C438.81 -36.6 439.26 -36.66 439.69 -36.66C440.19 -36.66 440.64 -36.57 441.04 -36.39C441.43 -36.21 441.85 -36.12 442.28 -36.12C442.71 -36.12 442.98 -36.32 443.09 -36.71C443.19 -37.11 443.5 -37.31 444 -37.31C444.15 -37.31 444.22 -37.27 444.22 -37.2C445.37 -36.91 446.52 -36.77 447.67 -36.77C448.67 -36.77 449.61 -36.8 450.47 -36.87C451.33 -36.95 452.23 -36.95 453.17 -36.87C454.68 -37.45 456.28 -37.92 457.96 -38.28C459.65 -38.64 461.34 -39.01 463.03 -39.41C464.72 -39.8 466.36 -40.27 467.94 -40.81C469.52 -41.35 470.96 -42.09 472.25 -43.02C475.34 -43.81 478.36 -44.8 481.31 -45.99C484.25 -47.17 487.24 -48.27 490.26 -49.27C491.05 -50.06 491.93 -50.73 492.9 -51.27C493.87 -51.81 494.93 -52.08 496.08 -52.08C496.65 -52.08 497.05 -52.01 497.26 -51.86C497.48 -51.43 497.59 -50.96 497.59 -50.46C497.59 -49.74 497.48 -49.04 497.26 -48.36C497.05 -47.67 496.94 -47.01 496.94 -46.36C496.94 -45.72 497.05 -45.14 497.26 -44.64C495.97 -39.68 494.98 -34.63 494.3 -29.49C493.62 -24.35 493.28 -19.19 493.28 -14.02L493.28 -11.32C493.28 -10.46 493.31 -9.56 493.38 -8.63C493.24 -8.34 493.08 -8.09 492.9 -7.87C492.72 -7.66 492.63 -7.37 492.63 -7.01L492.63 -6.25C492.48 -5.89 492.59 -5.62 492.95 -5.44C493.31 -5.27 493.49 -5 493.49 -4.64C493.49 -4.06 493.42 -3.43 493.28 -2.75C493.13 -2.07 493.06 -1.44 493.06 -0.86C493.06 0.93 493.28 2.68 493.71 4.37C494.14 6.06 494.59 7.71 495.05 9.33C495.52 10.94 495.97 12.53 496.4 14.07C496.83 15.62 497.05 17.14 497.05 18.65C497.05 19.37 497.01 19.91 496.94 20.27C497.73 20.92 498.74 21.49 499.96 22C501.18 22.5 502.3 22.75 503.3 22.75C504.09 22.75 504.74 22.61 505.24 22.32C505.75 22.03 506.18 21.65 506.54 21.19C506.9 20.72 507.22 20.22 507.51 19.68C507.8 19.14 508.12 18.58 508.48 18.01C508.26 17.36 508.15 16.64 508.15 15.85C508.15 15.13 508.26 14.45 508.48 13.8C506.54 11.21 505.26 8.41 504.65 5.39C504.04 2.37 503.73 -0.75 503.73 -3.99C503.73 -4.35 503.75 -5.41 503.79 -7.17C503.82 -8.93 503.88 -10.78 503.95 -12.72C504.02 -14.66 504.08 -16.44 504.11 -18.06C504.15 -19.68 504.17 -20.52 504.17 -20.59C505.03 -23.83 505.71 -26.99 506.21 -30.08C506.72 -33.17 507.29 -36.34 507.94 -39.57C508.15 -40.58 508.42 -41.58 508.75 -42.59C509.07 -43.6 509.38 -44.64 509.66 -45.72L509.77 -45.93L509.77 -46.04C509.77 -46.4 509.68 -46.7 509.5 -46.96C509.32 -47.21 509.23 -47.51 509.23 -47.87C509.23 -48.09 509.27 -48.3 509.34 -48.52C510.06 -50.82 510.78 -53.26 511.5 -55.85C512.22 -58.44 513.15 -60.77 514.3 -62.86C516.46 -64.3 518.47 -65.86 520.34 -67.55C522.21 -69.24 524.18 -70.87 526.27 -72.45C526.63 -74.32 527.08 -76.12 527.62 -77.85C528.16 -79.57 528.42 -81.37 528.42 -83.24ZM504.17 -76.01C504.02 -74.86 503.79 -73.75 503.46 -72.67C503.14 -71.59 502.62 -70.62 501.9 -69.76C502.19 -67.39 501.78 -65.55 500.66 -64.26C499.55 -62.97 498.15 -61.89 496.46 -61.03C494.77 -60.16 493.04 -59.34 491.28 -58.55C489.52 -57.76 488.17 -56.61 487.24 -55.1C487.17 -55.02 487.02 -54.99 486.81 -54.99C486.52 -54.99 486.27 -55.06 486.05 -55.2C485.84 -55.35 485.58 -55.42 485.3 -55.42L484.87 -55.42C481.63 -54.63 478.45 -53.62 475.32 -52.4C472.2 -51.18 469.07 -50.01 465.94 -48.9C462.82 -47.78 459.64 -46.83 456.4 -46.04C453.17 -45.25 449.82 -44.85 446.37 -44.85C445.8 -44.85 445.19 -44.87 444.54 -44.91C443.89 -44.94 443.28 -44.96 442.71 -44.96C441.99 -45.32 441.23 -45.68 440.44 -46.04C439.65 -46.4 438.86 -46.69 438.07 -46.9L438.07 -47.44C438.07 -48.09 438.27 -48.7 438.66 -49.27C439.06 -49.85 439.51 -50.41 440.01 -50.94C440.52 -51.48 441 -52.04 441.47 -52.62C441.94 -53.19 442.24 -53.87 442.38 -54.66C443.82 -56.1 445.1 -57.31 446.21 -58.28C447.33 -59.25 448.49 -60.34 449.72 -61.57C450.36 -61.64 450.94 -61.83 451.44 -62.16C451.94 -62.48 452.41 -62.86 452.84 -63.29C453.27 -63.72 453.71 -64.17 454.14 -64.64C454.57 -65.1 455.04 -65.52 455.54 -65.88L455.86 -65.88C456.01 -65.88 456.17 -65.86 456.35 -65.82C456.53 -65.79 456.69 -65.77 456.83 -65.77C457.19 -65.77 457.55 -66.11 457.91 -66.79C458.27 -67.48 458.63 -67.96 458.99 -68.25C460.07 -69.18 461.29 -69.98 462.65 -70.62C464.02 -71.27 465.4 -71.9 466.81 -72.51C468.21 -73.12 469.54 -73.84 470.8 -74.67C472.05 -75.49 473.15 -76.55 474.08 -77.85L477.97 -77.85C479.33 -78.71 480.77 -79.39 482.28 -79.89C483.79 -80.4 485.3 -80.86 486.81 -81.3L491.33 -82.59C492.84 -83.02 494.32 -83.63 495.76 -84.42L496.19 -84.42C496.91 -84.42 497.46 -84.23 497.86 -83.83C498.25 -83.43 498.81 -83.24 499.53 -83.24C499.46 -82.88 499.42 -82.34 499.42 -81.62C499.42 -79.89 499.91 -78.71 500.88 -78.06C501.85 -77.41 502.94 -76.73 504.17 -76.01Z"></path>
            </g>
          </svg>