<!-- <svg xmlns="http://www.w3.org/2000/svg" version="1.1" xlink="http://www.w3.org/1999/xlink" xmlns:svgjs="http://svgjs.com/svgjs" width="100%" height="100%" viewBox="0 0 128.84698486328125 126.57775115966797"><g fill="#aaaaaa"><g><path d="M127.766 64.873c-.824-.756-1.646-1.503-2.453-2.293a226.354 226.354 0 0 0-4.955-4.708 189.244 189.244 0 0 1-4.668-4.474c-1.049-1.035-2.266-2.26-3.031-3.182-1.152-1.387-2.289-2.559-3.707-3.888-1.217-1.142-2.445-2.399-3.664-3.55-2.061-1.941-4.105-3.746-6.184-5.83a33.022 33.022 0 0 0-1.498-1.391c-1.783-1.578-3.555-3.312-5.332-5.082-.406-.404-.873-.908-1.215-1.193-2.16-1.807-4.018-3.85-5.676-5.768a71.804 71.804 0 0 0-2.699-2.945c-.895-.938-1.787-1.871-2.686-2.807-1.857-1.934-3.719-3.906-5.664-5.746a507.514 507.514 0 0 0-6.443-5.967 67.355 67.355 0 0 1-1.148-1.074l-.539-.517-.045.049a583.926 583.926 0 0 0-3.178-2.916A75.83 75.83 0 0 1 61.833.517L61.293 0l-.496.517c-.938.978-1.82 1.818-2.586 2.42-1.164 1.275-1.883 2.105-2.674 2.924-3.248 3.367-6.707 6.658-9.83 10.072-.256.275-.551.578-.83.848-1.758 1.691-3.377 3.555-5.199 5.171-.184.161-.404.421-.611.636-1.5 1.553-2.996 3.101-4.496 4.657-.342.349-.771.78-1.066 1.018-1.736 1.408-3.578 3.281-5.318 4.967a692.377 692.377 0 0 0-10.018 9.91c-.842.848-1.728 1.631-2.467 2.432-1.467 1.598-3.049 3.162-4.533 4.721-2.637 2.77-5.398 5.359-8.045 8.098-.869.898-1.777 1.789-2.695 2.676L0 61.482l.428.441 2.383 2.467c1.602 1.639 3.338 3.252 4.756 4.92 1.443 1.699 3.467 3.287 4.832 5 3.084 2.955 5.883 6.137 9.06 9.082 1.373 1.273 2.812 2.879 4.188 4.154 3.422 3.174 6.818 6.234 10.232 9.364a851.454 851.454 0 0 1 6.658 6.155 37.963 37.963 0 0 0 1.928 1.688c.994.918 1.988 1.84 2.98 2.77 2.594 2.424 5.33 4.33 5.617 3.869.168-.262-.211-.785-1.574-2.229a217.806 217.806 0 0 0-7.389-7.492c-2.799-2.697-5.594-5.443-8.391-8.172-2.291-2.24-4.58-4.48-6.873-6.725-.771-.76-1.504-1.586-2.274-2.35-2.426-2.404-4.91-4.76-7.184-7.265-.234-.259-.559-.548-.842-.819-1.131-1.092-2.277-2.17-3.395-3.279-2.365-2.35-4.658-4.754-7.002-7.121.23-.237.465-.475.695-.715.27-.281.576-.562.863-.844l3.348-3.299c1.008-.98 2.01-1.957 3.016-2.934.344-.334.697-.65 1.033-.987 3.391-3.425 6.785-6.851 10.172-10.267 2.492-2.539 5.072-4.98 7.482-7.666 1.766-1.969 3.963-4.096 5.98-6.15.549-.559 1.178-1.109 1.695-1.656a253.27 253.27 0 0 1 5.957-6.115c3.098-3.076 6.242-6.039 9.336-9.184a822.876 822.876 0 0 1 8.361-8.35c1.348 1.295 2.697 2.572 4.064 3.957 2.85 2.883 5.85 5.582 8.68 8.568.199.209.43.418.645.629 2.002 1.945 4.004 3.894 6.006 5.844 1.547 1.51 3.1 3.029 4.637 4.531.988.949 1.99 1.807 2.975 2.76 1.629 1.582 3.281 3.148 4.842 4.859.598.658 1.617 1.498 2.078 2.049 1.314 1.57 2.943 3.123 4.381 4.67.918.988 1.922 1.998 2.898 2.994 2.152 2.193 4.469 4.289 6.494 6.576.207.234.535.525.807.779.772.719 1.549 1.406 2.311 2.15 1.131 1.104 2.336 2.439 3.355 3.33l.086.078c-1.561 1.639-3.219 3.233-4.75 4.867-.504.537-1.41 1.361-1.775 1.604-.615.402-1.469 1.242-1.775 1.596-1.412 1.639-3.068 3.025-4.506 4.566-.252.271-.578.574-.775.812-1.566 1.868-3.221 3.793-4.186 5.278-.312.482-.459.76-.225.766.807.018 2.486-1.105 4.867-3.031.852-.689 1.65-1.484 2.449-2.176 4.221-3.66 8.033-7.789 11.889-11.85.266-.285.525-.566.789-.848.969.977 1.961 2.045 2.822 2.799l.086.076c-1.561 1.639-3.221 3.233-4.75 4.867-.504.537-1.41 1.361-1.777 1.602-.613.404-1.467 1.244-1.773 1.598-1.412 1.639-3.068 3.025-4.508 4.566-.25.271-.578.574-.775.81-1.566 1.87-3.219 3.794-4.184 5.282-.314.48-.459.758-.225.762.805.02 2.484-1.104 4.867-3.031.85-.688 1.65-1.482 2.449-2.174 4.219-3.66 8.031-7.789 11.889-11.85l1.305-1.405 1.084-1.166-1.081-.994zM60.445 10.322c-3.246 3.363-6.705 6.656-9.83 10.068-.254.277-.549.58-.83.85-1.758 1.69-3.377 3.553-5.199 5.171-.184.161-.404.421-.611.636l-4.496 4.657c-.34.349-.771.778-1.066 1.017-1.736 1.41-3.576 3.283-5.316 4.967a697.744 697.744 0 0 0-10.02 9.91c-.842.85-1.729 1.633-2.465 2.434-1.469 1.596-3.051 3.162-4.535 4.721-2.635 2.771-5.397 5.361-8.045 8.096-.566.586-1.154 1.168-1.744 1.75a407.577 407.577 0 0 0-3.057-3.113c.232-.239.467-.476.697-.717.268-.281.574-.562.861-.844 1.119-1.1 2.236-2.199 3.35-3.299 1.008-.98 2.01-1.957 3.014-2.932.344-.334.697-.652 1.033-.989l10.172-10.267c2.494-2.539 5.072-4.982 7.484-7.666 1.766-1.967 3.963-4.096 5.979-6.149.551-.559 1.178-1.11 1.697-1.657a253.2 253.2 0 0 1 5.955-6.113c3.1-3.076 6.242-6.041 9.336-9.185a859.838 859.838 0 0 1 8.494-8.481c1.031 1.037 2.055 2.039 3.113 2.976a.354.354 0 0 1 .053.05c-.477.453-.932.857-1.35 1.186-1.164 1.273-1.883 2.103-2.674 2.923z"></path><path d="M98.5 93.538c-3.404 3.45-6.814 6.81-10.27 10.046-1.85 1.734-3.695 3.74-5.56 5.273-.385.316-.975.969-1.463 1.469-.619.637-1.223 1.287-1.852 1.91-1.965 1.951-3.934 3.947-5.904 5.818-2.102 2-3.633 3.795-5.25 5.639-.555.637-1.035 1.238-1.621 1.959-.084-.389-.34-.938-.531-1.422-.045-.119-.23-.4-.436-.621-.777-.834-1.498-1.719-2.332-2.523a71.532 71.532 0 0 0 4.84-4.021c.6-.539 1.244-1.047 1.777-1.596 3.002-3.088 6.014-6.119 9.125-9.01.27-.252.59-.58.818-.842.877-1 1.797-1.828 2.738-2.695 2.168-1.996 4.314-3.759 6.516-6.119.922-.986 2.033-2.117 2.656-2.918 1.27-1.625 2.762-3.387 4.086-5.041 1.697-2.119 1.771-2.691 1.402-3.029-1.209 1.074-2.518 2.117-3.648 3.265-3.406 3.45-6.814 6.81-10.268 10.044-1.854 1.736-3.697 3.742-5.562 5.275-.387.316-.977.969-1.465 1.472-.619.634-1.223 1.284-1.852 1.909-1.963 1.951-3.934 3.945-5.904 5.818-2.102 1.998-3.631 3.793-5.248 5.639-.314.359-.604.707-.9 1.07-.107-.084-.217-.172-.33-.254-.266-.189-.818-.762-1.234-1.168-.631-.629-1.268-1.258-2.219-2.205-.076-.014-.166-.043-.26-.072a10.902 10.902 0 0 0-1.195-1.014c-.266-.189-.818-.762-1.234-1.168-.631-.629-1.268-1.258-2.221-2.205-.387-.072-1.061-.457-.924-.119.244.607.725 1.486 1.559 2.547 1.311 1.666 3.102 3.557 5.102 5.355.998.896 1.592 1.402 1.92 1.578-.002 0-.002.002-.004.004-.047.373.01.666.494.469a49.699 49.699 0 0 0 2.498 2.406c1 .898 1.592 1.404 1.92 1.578 0 .002-.002.002-.004.004-.062.51.062.865 1.178.059 1.627-1.176 3.523-2.713 5.594-4.58.596-.537 1.242-1.045 1.775-1.594 3.002-3.086 6.014-6.121 9.125-9.01.271-.252.59-.582.82-.844.877-.998 1.795-1.826 2.738-2.693 2.166-1.996 4.314-3.759 6.516-6.119.92-.986 2.031-2.119 2.656-2.918 1.268-1.625 2.762-3.387 4.086-5.041 1.697-2.119 1.77-2.691 1.402-3.029-1.209 1.074-2.517 2.119-3.65 3.264z"></path></g></g></svg> -->

<svg xmlns="http://www.w3.org/2000/svg" version="1.1" xlink="http://www.w3.org/1999/xlink" xmlns:svgjs="http://svgjs.com/svgjs" width="100%" height="100%" viewBox="1.4500000476837158 -109.03226470947266 313.489990234375 113.83226776123047"><g fill="#5e5e5e"><path d="M102.43 -87.58C102.21 -87.95 101.95 -88.27 101.64 -88.54C101.33 -88.81 101.18 -89.17 101.16 -89.61C101.44 -90.43 101.51 -91.23 101.37 -92.02C101.23 -92.81 101.05 -93.63 100.83 -94.48C100.6 -95.32 100.43 -96.21 100.29 -97.13C100.15 -98.04 100.21 -99.01 100.47 -100.01C99.96 -100.96 99.47 -101.9 98.98 -102.81C98.49 -103.73 98.04 -104.71 97.62 -105.77C97.12 -105.77 96.75 -105.8 96.51 -105.87C96.16 -105.96 95.85 -106.15 95.58 -106.44C95.31 -106.73 95.04 -107.05 94.79 -107.4C94.53 -107.75 94.27 -108.07 94 -108.37C93.73 -108.66 93.41 -108.85 93.06 -108.94C92.17 -109.17 91.43 -108.97 90.82 -108.34C90.22 -107.71 89.81 -107.01 89.61 -106.25C89.44 -105.6 89.42 -104.83 89.53 -103.95C89.65 -103.07 89.99 -102.37 90.55 -101.84C90.37 -100.69 90.41 -99.58 90.67 -98.5C90.92 -97.42 91.07 -96.35 91.1 -95.27C90.8 -95.09 90.59 -94.77 90.47 -94.3C90.39 -94 90.38 -93.82 90.42 -93.74C90.59 -93.19 90.65 -92.67 90.58 -92.19L90.41 -90.81C90.36 -90.38 90.32 -89.91 90.28 -89.38C90.23 -88.86 90.32 -88.28 90.54 -87.66C90.19 -87.06 89.91 -86.42 89.71 -85.75C89.5 -85.08 89.31 -84.42 89.14 -83.77C88.86 -82.7 88.62 -81.65 88.41 -80.6C88.2 -79.55 88.02 -78.51 87.88 -77.47C87.83 -77.05 87.8 -76.61 87.78 -76.18C87.76 -75.74 87.69 -75.32 87.59 -74.9C87.51 -74.61 87.37 -74.5 87.17 -74.59C86.97 -74.67 86.81 -74.47 86.69 -74C86.57 -73.53 86.47 -73.03 86.4 -72.52C86.33 -72 86.23 -71.51 86.1 -71.03C85.77 -69.73 85.38 -68.48 84.93 -67.27C84.49 -66.06 84.11 -64.84 83.79 -63.6C83.6 -62.89 83.45 -62.19 83.33 -61.49C83.22 -60.8 83.15 -60.08 83.14 -59.32C82.63 -59.02 82.26 -58.58 82.04 -58C81.83 -57.43 81.66 -56.87 81.52 -56.34C81.39 -55.87 81.28 -55.36 81.17 -54.82C81.06 -54.29 80.92 -53.74 80.74 -53.19C80.57 -52.63 80.35 -52.12 80.1 -51.65C79.85 -51.18 79.54 -50.8 79.15 -50.53C79.41 -50.33 79.56 -50.09 79.57 -49.8C79.59 -49.51 79.56 -49.22 79.49 -48.93L79.35 -48.39C78.93 -48.25 78.67 -47.97 78.56 -47.56C78.49 -47.26 78.5 -46.95 78.6 -46.6C78.7 -46.26 78.71 -45.95 78.63 -45.65C78.62 -45.59 78.43 -45.47 78.06 -45.28C77.7 -45.09 77.44 -44.95 77.29 -44.86C76.99 -44.44 76.74 -43.95 76.54 -43.41C76.33 -42.86 76.16 -42.32 76.02 -41.79C75.79 -40.91 75.59 -40.03 75.43 -39.16C75.26 -38.28 75.07 -37.44 74.86 -36.61C74.6 -35.61 74.25 -34.63 73.81 -33.67C73.37 -32.71 72.8 -31.85 72.09 -31.09L71.49 -28.79C71.07 -28.39 70.71 -28.03 70.41 -27.7C70.1 -27.37 69.86 -26.88 69.69 -26.23C69.66 -26.11 69.65 -26 69.65 -25.91C69.66 -25.81 69.65 -25.7 69.62 -25.59C69.11 -25.34 68.67 -25.03 68.29 -24.66C67.91 -24.28 67.54 -23.89 67.18 -23.48C66.82 -23.07 66.45 -22.68 66.07 -22.3C65.69 -21.93 65.25 -21.65 64.76 -21.46C64.2 -21.73 63.73 -22.03 63.34 -22.35C62.95 -22.68 62.44 -22.95 61.8 -23.18C61.15 -24.55 60.39 -25.88 59.53 -27.18C58.67 -28.47 57.8 -29.76 56.9 -31.03C56 -32.31 55.15 -33.62 54.33 -34.96C53.52 -36.31 52.86 -37.71 52.35 -39.17C52.45 -40.03 52.39 -40.86 52.16 -41.68C51.93 -42.49 51.66 -43.34 51.35 -44.21C51.04 -45.07 50.81 -45.99 50.65 -46.94C50.48 -47.9 50.56 -48.97 50.87 -50.15C50.01 -51.44 49.5 -52.87 49.33 -54.43C49.17 -55.98 49.1 -57.51 49.11 -59.02C48.53 -59.43 48.14 -59.95 47.96 -60.6C47.79 -61.24 47.65 -61.93 47.55 -62.65C47.46 -63.36 47.38 -64.09 47.32 -64.83C47.26 -65.57 47.06 -66.24 46.71 -66.84C46.88 -69.19 46.78 -71.52 46.4 -73.82C46.02 -76.13 45.99 -78.47 46.29 -80.85C45.91 -81.07 45.69 -81.43 45.63 -81.92C45.57 -82.41 45.46 -82.83 45.3 -83.19C45.42 -83.91 45.51 -84.68 45.56 -85.48C45.62 -86.29 45.74 -87.08 45.94 -87.84C46.04 -88.2 46.22 -88.66 46.49 -89.21C45.99 -89.97 45.68 -90.81 45.54 -91.73C45.4 -92.65 45.28 -93.6 45.19 -94.57C45.1 -95.54 45.01 -96.47 44.93 -97.38C44.85 -98.28 44.64 -99.16 44.29 -100L44.71 -101.6C44.09 -102.39 43.61 -103.21 43.27 -104.05C42.92 -104.9 42.46 -105.68 41.89 -106.4L40.74 -106.7C40.03 -106.88 39.31 -107.01 38.57 -107.07C37.83 -107.14 37.11 -107.27 36.4 -107.45L36.04 -107.54C35.91 -107.26 35.73 -107 35.5 -106.74C35.28 -106.48 35 -106.33 34.68 -106.29L34.47 -105.5C34.24 -104.61 34.07 -103.71 33.95 -102.79C33.84 -101.88 33.66 -100.95 33.41 -100L33.21 -99.2C33.54 -98.3 33.62 -97.22 33.45 -95.97C33.28 -94.72 33.07 -93.47 32.8 -92.22C32.54 -90.96 32.36 -89.78 32.26 -88.67C32.16 -87.56 32.34 -86.69 32.81 -86.07L31.33 -84.37C31.14 -82.22 30.76 -80.04 30.19 -77.86C29.61 -75.62 28.92 -73.45 28.12 -71.35C27.32 -69.26 26.64 -67.12 26.07 -64.94C25.91 -64.35 25.78 -63.78 25.67 -63.24C25.56 -62.71 25.46 -62.13 25.37 -61.53C24.97 -61.44 24.69 -61.28 24.53 -61.04C24.37 -60.79 24.24 -60.53 24.13 -60.24C24.03 -59.95 23.89 -59.67 23.73 -59.4C23.56 -59.13 23.3 -58.91 22.94 -58.76C23.29 -58.41 23.39 -57.94 23.24 -57.35C23.07 -56.7 22.74 -56.11 22.25 -55.58C21.77 -55.04 21.35 -54.47 21.01 -53.87C21 -53.11 20.89 -52.32 20.67 -51.5C20.41 -50.49 20.05 -49.55 19.6 -48.66C19.15 -47.77 18.79 -46.82 18.53 -45.81C18.4 -45.34 18.34 -44.98 18.34 -44.73C16.62 -42.97 15.31 -40.92 14.41 -38.57C13.52 -36.21 12.53 -33.95 11.46 -31.77C11.35 -31.61 11.21 -31.38 11.04 -31.07C10.87 -30.77 10.69 -30.46 10.51 -30.13C10.33 -29.79 10.16 -29.49 9.99 -29.22C9.82 -28.95 9.73 -28.75 9.7 -28.64C9.54 -28.05 9.6 -27.62 9.88 -27.36C10.16 -27.1 10.24 -26.73 10.12 -26.26C8.89 -25.44 7.92 -24.35 7.19 -23C6.45 -21.65 5.79 -20.2 5.2 -18.65C4.61 -17.1 4.03 -15.56 3.48 -14.04C2.92 -12.51 2.25 -11.19 1.45 -10.07C1.58 -9.35 1.63 -8.58 1.6 -7.76L1.53 -5.32C1.65 -5.29 1.75 -5.25 1.83 -5.2C1.91 -5.15 2.01 -5.1 2.13 -5.07C2.54 -4.96 2.92 -5.01 3.25 -5.21C3.59 -5.4 3.96 -5.45 4.38 -5.34L4.62 -5.18C5.03 -4.57 5.48 -4 5.97 -3.46C6.46 -2.92 6.94 -2.34 7.4 -1.71C7.78 -2.18 8.25 -2.41 8.81 -2.39C9.37 -2.37 9.87 -2.49 10.32 -2.75C10.12 -2.93 10.04 -3.14 10.11 -3.37C10.17 -3.61 10.38 -3.82 10.74 -4.01C11.11 -4.2 11.39 -4.42 11.58 -4.69C11.82 -5.13 12.04 -5.59 12.23 -6.08C12.42 -6.57 12.58 -7.05 12.7 -7.52C13.13 -9.17 13.31 -10.7 13.23 -12.11C13.39 -12.45 13.61 -12.63 13.9 -12.64C14.18 -12.66 14.38 -12.88 14.49 -13.29C14.63 -13.82 14.62 -14.41 14.47 -15.05C14.33 -15.68 14.33 -16.3 14.48 -16.89C14.62 -17.42 14.85 -18.1 15.16 -18.94C15.47 -19.77 15.82 -20.62 16.2 -21.5C16.59 -22.38 16.96 -23.24 17.31 -24.1C17.66 -24.95 17.97 -25.66 18.24 -26.22C19.59 -29.46 20.97 -32.69 22.38 -35.92C23.79 -39.15 25.11 -42.4 26.34 -45.67C27.1 -46.16 27.72 -46.85 28.2 -47.74C28.68 -48.62 29.1 -49.55 29.45 -50.53C29.8 -51.51 30.09 -52.51 30.32 -53.52C30.56 -54.53 30.81 -55.44 31.08 -56.25C31.51 -57.4 32 -58.5 32.56 -59.56C33.12 -60.61 33.55 -61.73 33.86 -62.91C33.98 -63.38 34.09 -63.85 34.19 -64.33C34.28 -64.81 34.39 -65.29 34.51 -65.76C34.68 -66.41 34.92 -67.01 35.22 -67.56C35.52 -68.12 36.05 -68.51 36.8 -68.76C37.28 -67.69 37.63 -66.56 37.86 -65.36C38.08 -64.17 38.28 -62.98 38.44 -61.81C38.61 -60.63 38.81 -59.46 39.04 -58.29C39.27 -57.13 39.67 -56.03 40.22 -55.01C40.07 -54.92 39.96 -54.76 39.9 -54.52C39.84 -54.29 39.89 -54.04 40.04 -53.78C40.19 -53.52 40.23 -53.24 40.15 -52.94C40.12 -52.83 39.92 -52.66 39.55 -52.44C40.95 -49.36 41.65 -46.25 41.65 -43.09C42.27 -41.36 42.88 -39.73 43.5 -38.21C44.11 -36.7 44.42 -34.99 44.43 -33.1C45.36 -32.04 46.08 -30.84 46.62 -29.5C47.15 -28.17 47.63 -26.85 48.04 -25.54C48.19 -25.12 48.36 -24.65 48.57 -24.12C48.78 -23.6 48.99 -23.15 49.21 -22.77C49.39 -22.48 49.74 -22.26 50.27 -22.12L50.63 -22.03C51.31 -19.83 52.4 -17.91 53.9 -16.26C55.39 -14.61 57.03 -13.11 58.82 -11.76C59.19 -11.72 59.54 -11.73 59.87 -11.77L60.84 -11.89C61.09 -11.13 61.54 -10.67 62.18 -10.5C62.89 -10.32 63.71 -10.32 64.65 -10.52C65.58 -10.72 66.5 -10.73 67.4 -10.56C68.91 -11.49 70.28 -12.6 71.53 -13.88C72.78 -15.16 73.96 -16.48 75.07 -17.83C75.26 -18.09 75.5 -18.35 75.78 -18.59C76.07 -18.83 76.31 -19.08 76.5 -19.35C77.06 -20.27 77.55 -21.26 77.99 -22.32C78.42 -23.37 78.86 -24.4 79.32 -25.42C80.5 -28.01 81.61 -30.64 82.65 -33.3C83.69 -35.96 84.57 -38.68 85.29 -41.45C85.56 -42.46 85.78 -43.42 85.96 -44.35C86.14 -45.28 86.3 -46.27 86.44 -47.3C87.35 -48.39 88.06 -49.58 88.55 -50.87C89.05 -52.15 89.47 -53.48 89.82 -54.84C90.56 -57.67 91.33 -60.48 92.12 -63.27C92.91 -66.06 93.67 -68.87 94.41 -71.7C95 -73.95 95.56 -76.23 96.1 -78.55C96.65 -80.86 97.09 -83.17 97.44 -85.48C97.88 -85.24 98.26 -85 98.57 -84.76C98.89 -84.52 99.28 -84.34 99.76 -84.21L100.38 -84.05C100.6 -84.68 100.88 -85.31 101.19 -85.92C101.51 -86.53 101.92 -87.08 102.43 -87.58Z M151.43 -52.25C151.4 -53.3 151.2 -54.22 150.81 -55.02C150.43 -55.82 149.99 -56.57 149.5 -57.26C149.02 -57.95 148.54 -58.65 148.09 -59.36C147.63 -60.08 147.27 -60.91 146.99 -61.86C145.47 -62.67 144.25 -63.76 143.34 -65.13C143.09 -65.09 142.86 -65.07 142.64 -65.06C142.43 -65.05 142.17 -65.06 141.86 -65.09C140.77 -65.19 139.73 -65.48 138.73 -65.97C137.73 -66.46 136.69 -66.76 135.59 -66.86C135.23 -66.89 134.89 -66.89 134.58 -66.86C134.27 -66.83 133.93 -66.77 133.56 -66.68C132.5 -66.53 131.52 -66.39 130.62 -66.26C129.72 -66.13 128.76 -65.84 127.74 -65.38C125.9 -64.69 124.14 -63.88 122.46 -62.93C120.78 -61.98 118.94 -61.32 116.94 -60.96C116.66 -60.49 116.28 -60.1 115.82 -59.77C115.36 -59.45 115.02 -59.02 114.79 -58.49C112.36 -57.49 110.17 -56.16 108.21 -54.5C106.25 -52.85 104.11 -51.42 101.8 -50.22C101.82 -49.85 101.77 -49.54 101.62 -49.28C101.47 -49.01 101.16 -48.91 100.67 -48.95C100.49 -48.97 100.37 -49.01 100.31 -49.08C100.39 -48.58 100.34 -48.22 100.17 -47.99C99.99 -47.76 99.89 -47.46 99.85 -47.1C97.33 -44.94 95.05 -42.65 93.02 -40.24C90.99 -37.82 89.28 -35.08 87.89 -32.03C87.86 -31.05 87.66 -30.16 87.28 -29.37C86.9 -28.58 86.61 -27.76 86.41 -26.92C87 -23.99 87.58 -21.35 88.16 -19C88.74 -16.65 89.8 -14.17 91.33 -11.58C92.14 -11.08 93.08 -10.55 94.13 -9.99C95.18 -9.43 95.97 -8.7 96.5 -7.8C97.57 -7.51 98.64 -7.25 99.69 -6.99C100.73 -6.74 101.81 -6.57 102.9 -6.47C103.75 -6.39 104.61 -6.39 105.47 -6.46C106.34 -6.53 107.18 -6.75 108.01 -7.1C108.23 -6.83 108.62 -6.67 109.16 -6.62L110.26 -6.52C111.4 -6.91 112.55 -7.17 113.73 -7.31C114.91 -7.44 116.08 -7.52 117.24 -7.53C118.82 -8.73 120.56 -9.64 122.46 -10.27C124.35 -10.89 126.27 -11.41 128.21 -11.85C129.27 -12.73 130.37 -13.52 131.51 -14.21C132.64 -14.9 133.87 -15.43 135.19 -15.8C136.7 -17.5 138.23 -19.15 139.79 -20.75C141.34 -22.35 142.65 -24.18 143.69 -26.22C143.71 -27.08 143.81 -27.82 143.99 -28.45C144.17 -29.08 144.41 -29.67 144.71 -30.22C145 -30.78 145.32 -31.34 145.65 -31.93C145.97 -32.51 146.32 -33.15 146.7 -33.85L146.71 -34.03C146.92 -36.28 147.55 -38.49 148.61 -40.66C148.77 -41.07 148.99 -41.48 149.28 -41.88C149.56 -42.29 149.78 -42.69 149.94 -43.11L150.07 -44.48C150.13 -45.14 150.18 -45.83 150.21 -46.53C150.25 -47.23 150.3 -47.95 150.36 -48.68C150.41 -49.22 150.5 -49.83 150.62 -50.49C150.75 -51.15 151.02 -51.74 151.43 -52.25ZM141.88 -48.36C141.81 -47.57 141.5 -46.86 140.95 -46.24C140.98 -45.93 141 -45.59 140.99 -45.22C140.99 -44.86 140.97 -44.52 140.95 -44.22C140.82 -42.82 140.53 -41.5 140.07 -40.25C139.62 -39.01 139.1 -37.8 138.5 -36.63C137.9 -35.46 137.3 -34.28 136.7 -33.07C136.1 -31.87 135.58 -30.62 135.16 -29.31C134.43 -28.71 133.72 -28.04 133.04 -27.3C132.36 -26.57 131.74 -25.83 131.18 -25.08C130.91 -24.8 130.65 -24.49 130.4 -24.14C130.16 -23.8 129.87 -23.49 129.54 -23.21C129.2 -22.88 128.77 -22.56 128.26 -22.28C127.74 -21.99 127.28 -21.71 126.89 -21.44C124.3 -19.9 121.59 -18.63 118.77 -17.64C115.96 -16.64 113.06 -16.01 110.1 -15.73C108.85 -16.21 107.55 -16.48 106.18 -16.55C104.8 -16.62 103.53 -16.95 102.36 -17.55C101.19 -18.08 100.38 -18.86 99.96 -19.88C99.53 -20.9 98.96 -21.87 98.25 -22.8C98.22 -23.11 98.22 -23.41 98.24 -23.72L98.33 -24.63C98.53 -26.82 98.99 -28.63 99.7 -30.06C100.42 -31.5 101.25 -32.81 102.18 -34.01C103.12 -35.21 104.12 -36.39 105.18 -37.55C106.23 -38.71 107.23 -40.1 108.18 -41.73C109.09 -42.32 109.97 -42.98 110.8 -43.69C111.63 -44.41 112.48 -45.12 113.34 -45.8C114.2 -46.49 115.07 -47.14 115.95 -47.77C116.84 -48.39 117.79 -48.9 118.81 -49.3C119.35 -49.86 119.97 -50.28 120.67 -50.55C121.37 -50.82 121.93 -51.27 122.36 -51.91L124 -51.76C124.54 -52.32 125.18 -52.78 125.92 -53.14C126.65 -53.5 127.42 -53.8 128.2 -54.03C128.99 -54.27 129.77 -54.52 130.53 -54.78C131.29 -55.05 131.96 -55.43 132.56 -55.93C133.09 -55.64 133.43 -55.22 133.6 -54.68C133.76 -54.15 133.91 -53.63 134.05 -53.13C134.27 -52.86 134.54 -52.67 134.87 -52.54C135.19 -52.42 135.52 -52.27 135.84 -52.09C136.16 -51.9 136.45 -51.71 136.7 -51.5C136.96 -51.29 137.1 -50.97 137.12 -50.54C137.56 -50.69 137.99 -50.74 138.42 -50.7C139.09 -50.64 139.68 -50.43 140.2 -50.08C140.72 -49.72 141.27 -49.42 141.86 -49.19C141.9 -48.94 141.91 -48.66 141.88 -48.36Z M228.85 -61.54L228.58 -61.53C228.21 -61.51 227.8 -61.48 227.34 -61.43C226.89 -61.37 226.53 -61.46 226.28 -61.7C226.17 -62.73 225.83 -63.68 225.27 -64.54C224.71 -65.39 223.88 -65.83 222.78 -65.84L222.19 -64.8C221.84 -64.48 221.29 -64.22 220.53 -64.03C219.78 -63.85 218.96 -63.68 218.08 -63.55C217.2 -63.42 216.37 -63.3 215.58 -63.2C214.79 -63.1 214.18 -62.98 213.76 -62.84C213.22 -62.69 212.94 -62.42 212.93 -62.02C212.92 -61.62 212.7 -61.42 212.27 -61.4C212.09 -61.39 211.91 -61.39 211.72 -61.42C211.54 -61.44 211.33 -61.44 211.08 -61.43C210.05 -61.38 209.05 -61.15 208.09 -60.74C207.13 -60.33 206.14 -60.09 205.1 -60.05C204.43 -60.01 203.81 -60.11 203.25 -60.32C203.28 -59.84 203.19 -59.51 202.98 -59.35C202.77 -59.19 202.46 -59.07 202.04 -58.98C200.83 -58.74 199.63 -58.55 198.45 -58.4C197.26 -58.25 196.06 -58.09 194.85 -57.91C192.3 -57.48 189.84 -57 187.45 -56.46C185.07 -55.91 182.66 -55.4 180.24 -54.92C179.75 -55.02 179.26 -55.09 178.77 -55.12C178.28 -55.16 177.79 -55.17 177.3 -55.15C175.41 -55.06 173.58 -54.77 171.8 -54.29C170.02 -53.81 168.21 -53.52 166.39 -53.43C165.96 -53.41 165.55 -53.41 165.15 -53.42C164.75 -53.43 164.34 -53.46 163.91 -53.5C162.47 -52.88 161.01 -52.42 159.53 -52.1C158.05 -51.79 156.55 -51.5 155.04 -51.24C153.52 -50.99 152.04 -50.67 150.59 -50.3C149.15 -49.92 147.74 -49.4 146.36 -48.72C146.34 -47.93 146.08 -47.34 145.58 -46.95C145.08 -46.55 144.84 -46.02 144.87 -45.35C144.89 -45.05 145.09 -44.71 145.47 -44.33C145.86 -43.95 146.06 -43.46 146.09 -42.85C146.1 -42.73 146.05 -42.48 145.95 -42.11C146.7 -41.65 147.35 -41.24 147.88 -40.87C148.42 -40.5 149.18 -40.34 150.15 -40.38C150.39 -40.4 150.9 -40.45 151.65 -40.55C152.41 -40.64 153.2 -40.76 154.02 -40.89C154.84 -41.02 155.58 -41.16 156.24 -41.32C156.91 -41.47 157.33 -41.61 157.51 -41.74C157.75 -41.88 157.88 -42.02 157.9 -42.17C157.92 -42.33 158.12 -42.41 158.48 -42.43C158.91 -42.45 159.34 -42.41 159.77 -42.31C160.2 -42.21 160.66 -42.17 161.15 -42.19C161.64 -42.21 162.16 -42.44 162.72 -42.86C163.28 -43.28 163.99 -43.52 164.84 -43.56C165.09 -43.57 165.45 -43.53 165.95 -43.43C166.02 -43.13 166.17 -42.89 166.39 -42.72C166.62 -42.54 166.82 -42.37 167.01 -42.2C167.11 -41.53 167.22 -40.85 167.34 -40.15C167.47 -39.45 167.75 -38.84 168.21 -38.31C168.35 -36.55 168.51 -34.83 168.68 -33.16C168.85 -31.49 168.98 -29.8 169.06 -28.09C169.1 -27.24 169.11 -26.37 169.09 -25.48C169.08 -24.6 169.03 -23.72 168.94 -22.86C169.63 -21.31 169.98 -19.68 170 -17.97C170.02 -16.26 170.25 -14.62 170.69 -13.05C170.91 -12.33 171.24 -11.63 171.67 -10.95C172.09 -10.26 172.52 -9.6 172.95 -8.95C173.38 -8.29 173.79 -7.63 174.19 -6.94C174.59 -6.26 174.87 -5.53 175.03 -4.74C175.52 -4.82 175.84 -4.75 176 -4.51C176.17 -4.27 176.35 -4.01 176.55 -3.71C176.74 -3.42 177.03 -3.14 177.41 -2.88C177.79 -2.63 178.43 -2.52 179.35 -2.56C180.08 -2.6 180.74 -2.83 181.33 -3.25C181.92 -3.68 182.51 -4.13 183.1 -4.62C183.69 -5.11 184.32 -5.56 185 -5.99C185.69 -6.42 186.48 -6.66 187.4 -6.7C187.59 -7.75 187.99 -8.63 188.6 -9.33C189.21 -10.03 189.74 -10.82 190.18 -11.69C190.09 -12.36 190.01 -12.98 189.96 -13.56C189.9 -14.14 189.85 -14.76 189.82 -15.43C189.8 -15.8 189.8 -16.16 189.81 -16.53C189.83 -16.9 189.86 -17.23 189.9 -17.54C189.52 -17.83 189.1 -18.05 188.63 -18.21C188.17 -18.38 187.69 -18.44 187.2 -18.42C186.35 -18.38 185.54 -18.17 184.76 -17.8C183.98 -17.43 183.17 -17.13 182.33 -16.91C182.44 -17.16 182.49 -17.4 182.48 -17.65C182.45 -18.32 182.18 -18.84 181.67 -19.21C181.16 -19.58 180.89 -20.11 180.86 -20.78C180.82 -21.57 180.83 -22.32 180.89 -23.02C180.95 -23.73 180.96 -24.45 180.93 -25.18C180.83 -27.25 180.43 -29.18 179.73 -30.98C180.01 -31.67 180.12 -32.59 180.06 -33.75C180.01 -34.78 179.89 -35.82 179.68 -36.84C179.48 -37.87 179.36 -38.91 179.31 -39.94C179.27 -40.73 179.36 -41.47 179.57 -42.15C179 -42.43 178.6 -42.82 178.37 -43.33C178.13 -43.84 178.03 -44.37 178.06 -44.92C178.18 -44.93 178.27 -44.95 178.33 -44.98C178.39 -45.01 178.48 -45.03 178.61 -45.04C179.03 -45.06 179.41 -45.05 179.75 -45C180.09 -44.96 180.41 -44.88 180.73 -44.77C182.03 -45.63 183.54 -46.24 185.27 -46.59C186.99 -46.95 188.58 -47.16 190.04 -47.23C190.72 -47.27 191.39 -47.27 192.06 -47.24C192.73 -47.21 193.38 -47.15 193.99 -47.06C195.3 -47.91 196.8 -48.46 198.5 -48.69C200.19 -48.92 201.77 -49.11 203.23 -49.24C203.66 -49.32 204.08 -49.35 204.51 -49.34C204.94 -49.33 205.33 -49.4 205.69 -49.54C206.42 -49.76 207.11 -49.99 207.77 -50.23C208.43 -50.48 209.09 -50.68 209.75 -50.83C211.21 -51.14 212.66 -51.41 214.11 -51.63C215.57 -51.86 217.02 -52.15 218.47 -52.53C218.84 -52.42 219.13 -52.21 219.32 -51.88C219.52 -51.56 219.69 -51.21 219.83 -50.85C220.67 -51.2 221.34 -51.61 221.83 -52.09C222.33 -52.58 223.07 -52.84 224.04 -52.89C224.16 -52.89 224.32 -52.88 224.5 -52.86C224.68 -52.84 224.84 -52.83 224.96 -52.84C224.79 -53.75 224.86 -54.56 225.16 -55.28C225.47 -55.99 225.85 -56.67 226.3 -57.3L227.77 -59.29C228.28 -59.99 228.64 -60.74 228.85 -61.54Z M265.72 -70.16C265.61 -70.76 265.38 -71.26 265.03 -71.67C264.68 -72.07 264.42 -72.6 264.24 -73.25C263.54 -73 262.8 -72.88 262.03 -72.9C261.25 -72.91 260.5 -72.86 259.78 -72.73C259.12 -72.61 258.53 -72.42 258.02 -72.14C256.47 -72.17 254.9 -72.11 253.32 -71.95C251.73 -71.8 250.16 -71.58 248.6 -71.3C246.8 -70.98 245.02 -70.63 243.25 -70.26C241.49 -69.88 239.71 -69.53 237.91 -69.21C236.74 -68.45 235.44 -67.94 234 -67.68C233.28 -67.55 232.55 -67.47 231.81 -67.43C231.08 -67.39 230.34 -67.37 229.59 -67.36C229.34 -67.07 229.15 -66.82 229.03 -66.61C228.91 -66.4 228.61 -66.26 228.13 -66.17C227.13 -65.87 226.26 -65.56 225.51 -65.24C224.76 -64.92 224.06 -64.57 223.42 -64.17C222.78 -63.78 222.15 -63.33 221.53 -62.81C220.9 -62.3 220.22 -61.73 219.46 -61.1C218.98 -60.64 218.46 -60.19 217.89 -59.75C217.32 -59.31 216.72 -58.94 216.09 -58.64C216.09 -58.27 216.03 -57.92 215.9 -57.58L215.52 -56.59L212.55 -56.06C212.11 -55.73 211.81 -55.34 211.64 -54.88C211.48 -54.41 211.18 -54.02 210.74 -53.69C210.78 -53.14 210.85 -52.56 210.95 -51.96L211.26 -50.25C211.57 -48.51 211.94 -46.78 212.37 -45.06C212.8 -43.34 213.17 -41.61 213.48 -39.86L213.53 -39.59C213.25 -38.37 212.99 -37.18 212.77 -36.02C212.54 -34.86 212.21 -33.72 211.8 -32.59L211.91 -31.96C212.04 -31.24 212.24 -30.64 212.51 -30.16C212.78 -29.69 213.09 -29.14 213.45 -28.52C213.4 -28.08 213.42 -27.58 213.48 -27.04C213.55 -26.49 213.6 -25.94 213.63 -25.39C213.67 -24.84 213.66 -24.3 213.6 -23.76C213.54 -23.22 213.42 -22.78 213.23 -22.44C213.6 -21.76 213.87 -20.94 214.04 -19.98C214.21 -19.02 214.32 -18.06 214.36 -17.11C214.41 -16.16 214.52 -15.2 214.69 -14.24C214.81 -13.58 214.97 -13.02 215.17 -12.56C215.38 -12.1 215.63 -11.56 215.93 -10.93C216 -10.88 216.04 -10.79 216.07 -10.67C216.12 -10.37 216.03 -10.17 215.8 -10.07C215.57 -9.97 215.48 -9.76 215.54 -9.46L215.59 -9.19C216.46 -7.74 217.32 -6.22 218.16 -4.63C219 -3.05 219.99 -1.61 221.11 -0.32C222.24 0.96 223.52 1.99 224.96 2.76C226.4 3.52 228.15 3.78 230.21 3.54C230.19 4.1 230.41 4.39 230.88 4.4C231.34 4.41 231.72 4.54 232.02 4.8C232.86 4.65 233.63 4.47 234.34 4.25C235.04 4.03 235.75 3.86 236.47 3.73C237.32 3.58 238.11 3.53 238.86 3.58C240.28 2.46 241.7 1.31 243.13 0.13C244.56 -1.06 246.1 -2.07 247.75 -2.92C248.12 -3.61 248.54 -4.23 249 -4.77C249.46 -5.32 249.98 -5.89 250.55 -6.49C251.11 -6.84 251.46 -7.12 251.61 -7.33C252.38 -8.21 253.12 -9.41 253.81 -10.93C254.5 -12.44 255.13 -14.03 255.7 -15.68C256.28 -17.33 256.79 -18.97 257.24 -20.6C257.7 -22.23 258.1 -23.63 258.45 -24.81C257.9 -25.46 257.42 -26.16 257 -26.92C256.59 -27.69 256.08 -28.36 255.48 -28.93C255.2 -28.76 254.91 -28.61 254.59 -28.49C254.27 -28.37 253.96 -28.29 253.66 -28.23C253.36 -28.18 253.06 -28.16 252.78 -28.17C252.5 -28.18 252.2 -28.22 251.88 -28.29C251.67 -27.38 251.27 -26.6 250.67 -25.94C250.08 -25.27 249.54 -24.56 249.05 -23.79L249.52 -21.18C248.82 -20.56 248.36 -19.79 248.11 -18.88C247.87 -17.97 247.62 -17.06 247.35 -16.14C246.73 -15.79 246.11 -15.26 245.49 -14.56C244.87 -13.86 244.27 -13.15 243.69 -12.43C243.1 -11.7 242.57 -11.06 242.07 -10.51C241.58 -9.96 241.16 -9.65 240.8 -9.59C240.56 -9.55 240.33 -9.54 240.11 -9.56C239.89 -9.58 239.65 -9.57 239.41 -9.53L238.98 -9.36C238.59 -8.42 238.01 -7.7 237.23 -7.19C236.45 -6.68 235.58 -6.34 234.62 -6.17C233.18 -5.91 231.91 -6.07 230.82 -6.65C229.72 -7.23 228.79 -8.04 228.01 -9.08C227.24 -10.12 226.6 -11.29 226.09 -12.6C225.58 -13.9 225.22 -15.12 225.02 -16.26C224.91 -16.86 224.86 -17.47 224.88 -18.1C224.89 -18.72 224.85 -19.3 224.75 -19.84C224.67 -20.32 224.42 -20.48 224.02 -20.31C223.61 -20.15 223.36 -20.21 223.24 -20.5C223.53 -20.99 223.67 -21.6 223.66 -22.34C223.65 -23.08 223.59 -23.86 223.47 -24.68C223.36 -25.5 223.25 -26.3 223.14 -27.08C223.03 -27.87 223.02 -28.55 223.1 -29.12C223.46 -29.56 223.86 -29.89 224.32 -30.13C224.77 -30.36 225.11 -30.75 225.32 -31.28C225.69 -31.29 226.06 -31.3 226.43 -31.34C226.79 -31.37 227.16 -31.42 227.52 -31.49C228.84 -31.72 230.1 -32.1 231.31 -32.63C232.52 -33.15 233.81 -33.54 235.19 -33.78C235.79 -33.89 236.25 -33.94 236.56 -33.93C236.66 -34.07 236.7 -34.28 236.68 -34.56C236.66 -34.83 236.78 -34.99 237.02 -35.03C238.46 -35.29 239.82 -35.73 241.1 -36.37C242.38 -37 243.66 -37.69 244.92 -38.44C246.18 -39.19 247.45 -39.88 248.73 -40.51C250.01 -41.14 251.37 -41.58 252.82 -41.84L253.81 -42.02C254.04 -42.8 254.38 -43.67 254.83 -44.62C255.28 -45.56 255.43 -46.46 255.28 -47.3C255.2 -47.78 254.99 -48.18 254.65 -48.49C254.32 -48.8 253.92 -49.07 253.44 -49.3C252.64 -49.28 251.83 -49.2 251.02 -49.05C250.21 -48.91 249.39 -48.92 248.55 -49.08C247.62 -48.41 246.68 -47.92 245.75 -47.6C244.81 -47.28 243.9 -47.01 243.01 -46.79C242.12 -46.57 241.22 -46.35 240.3 -46.12C239.38 -45.9 238.46 -45.58 237.54 -45.17C236.74 -44.78 235.91 -44.47 235.05 -44.26C234.19 -44.04 233.31 -43.86 232.41 -43.7C231.51 -43.54 230.6 -43.39 229.7 -43.26C228.79 -43.13 227.9 -42.92 227.02 -42.64C226.95 -42.32 226.78 -42.09 226.49 -41.95C226.21 -41.8 225.92 -41.7 225.61 -41.65C225.31 -41.6 224.96 -41.57 224.56 -41.56C224.16 -41.55 223.8 -41.58 223.48 -41.64C223.05 -42.31 222.73 -43 222.51 -43.7C222.29 -44.41 222.11 -45.18 221.96 -46.02C221.82 -46.8 221.71 -47.6 221.62 -48.42C221.54 -49.25 221.48 -50.09 221.45 -50.95C222.47 -52.18 223.73 -53.23 225.22 -54.08C226.71 -54.94 228.28 -55.74 229.94 -56.5C231.61 -57.26 233.25 -58.04 234.88 -58.82C236.5 -59.61 237.97 -60.49 239.29 -61.46C239.86 -61.38 240.51 -61.4 241.23 -61.53C242.13 -61.69 243.05 -61.99 243.99 -62.44C244.94 -62.89 245.79 -63.43 246.54 -64.06C248.36 -64.26 250.17 -64.58 251.95 -65.02C253.73 -65.46 255.52 -65.84 257.32 -66.16C257.98 -66.28 258.66 -66.38 259.36 -66.47C260.05 -66.57 260.74 -66.64 261.41 -66.7C262.02 -67.12 262.67 -67.47 263.36 -67.74C264.05 -68.02 264.7 -68.37 265.31 -68.79C265.23 -69.27 265.38 -69.61 265.78 -69.8Z M314.67 -37.18C314.18 -38.81 313.49 -40.18 312.58 -41.28C311.68 -42.38 310.62 -43.27 309.39 -43.95C308.17 -44.64 306.85 -45.15 305.44 -45.49C304.04 -45.83 302.57 -46.1 301.05 -46.28C300.32 -46.38 299.6 -46.46 298.88 -46.53C298.15 -46.6 297.45 -46.63 296.75 -46.61C296 -46.58 295.22 -46.44 294.44 -46.2C293.65 -45.97 292.85 -45.79 292.06 -45.68C290.51 -45.34 288.95 -45.07 287.39 -44.86C285.83 -44.64 284.23 -44.48 282.61 -44.38C282.27 -44.02 281.81 -43.76 281.23 -43.58C280.11 -43.25 279 -43.15 277.87 -43.29C276.75 -43.43 275.6 -43.33 274.43 -42.98L274.17 -42.9C273.31 -43.21 272.44 -43.53 271.55 -43.83C270.66 -44.14 269.85 -44.56 269.11 -45.11C268.82 -45.66 268.57 -46.19 268.35 -46.69C268.13 -47.2 267.87 -47.66 267.55 -48.08C267.98 -50.05 268.71 -51.93 269.74 -53.7C270.76 -55.48 271.51 -57.39 271.98 -59.44C272.84 -59.76 273.51 -60.3 273.98 -61.04C274.46 -61.79 274.92 -62.6 275.36 -63.46C275.8 -64.33 276.32 -65.15 276.91 -65.93C277.51 -66.72 278.34 -67.33 279.42 -67.78C279.03 -68.43 279.2 -69.02 279.93 -69.56C280.32 -69.55 280.6 -69.63 280.77 -69.81C280.93 -69.99 281.06 -70.15 281.14 -70.31L281.45 -70.88C281.57 -71.1 281.78 -71.26 282.07 -71.35C282.54 -71.49 282.98 -71.5 283.4 -71.37C283.82 -71.24 284.23 -71.26 284.62 -71.45L284.8 -71.5C285.63 -72.32 286.21 -73.32 286.53 -74.5C286.84 -75.68 287.11 -76.84 287.34 -77.99C287.01 -78.47 286.73 -79.02 286.51 -79.65C286.29 -80.29 286.05 -80.92 285.8 -81.54C285.55 -82.17 285.27 -82.74 284.95 -83.25C284.64 -83.76 284.22 -84.16 283.69 -84.45C283.38 -84.42 283.1 -84.38 282.86 -84.34C282.62 -84.3 282.38 -84.24 282.14 -84.17C281.21 -83.89 280.4 -83.46 279.72 -82.87C279.03 -82.29 278.37 -81.67 277.73 -81.04C277.1 -80.4 276.44 -79.79 275.75 -79.2C275.07 -78.61 274.26 -78.18 273.32 -77.9C273.31 -77.32 273.17 -76.83 272.9 -76.44C272.64 -76.04 272.34 -75.66 272 -75.3C271.66 -74.95 271.33 -74.58 271 -74.19C270.67 -73.81 270.45 -73.37 270.33 -72.89C269.38 -72.48 268.65 -71.93 268.16 -71.24C267.66 -70.55 267.24 -69.82 266.9 -69.05C266.56 -68.28 266.21 -67.52 265.86 -66.78C265.51 -66.03 264.94 -65.39 264.15 -64.83C263.73 -63.05 263.11 -61.35 262.29 -59.73C261.47 -58.12 260.59 -56.53 259.66 -54.98C259.86 -54.72 259.9 -54.42 259.79 -54.06C259.67 -53.71 259.66 -53.39 259.74 -53.1C259.8 -52.92 259.87 -52.78 259.96 -52.68C259.61 -52.39 259.27 -52.13 258.95 -51.9C258.64 -51.68 258.33 -51.43 258.03 -51.15C258.07 -49.95 258.02 -48.79 257.88 -47.67C257.74 -46.54 257.55 -45.43 257.3 -44.34C257.78 -43.4 258.28 -42.37 258.8 -41.25C259.33 -40.14 259.94 -39.1 260.65 -38.13C261.35 -37.16 262.16 -36.34 263.06 -35.65C263.97 -34.97 265.03 -34.52 266.23 -34.31C266.71 -34.2 267.19 -34.16 267.65 -34.21C268.11 -34.25 268.61 -34.26 269.13 -34.22C271.03 -34.03 272.77 -33.86 274.34 -33.73C275.91 -33.59 277.64 -33.75 279.55 -34.19C280.01 -33.95 280.49 -33.86 281.02 -33.92C281.54 -33.98 282.02 -33.82 282.45 -33.44C282.25 -33.7 282.25 -33.94 282.47 -34.16C282.69 -34.39 282.95 -34.54 283.24 -34.63C283.65 -34.75 284.06 -34.83 284.46 -34.85C284.87 -34.88 285.26 -34.92 285.62 -34.96C287.1 -35.15 288.54 -35.39 289.95 -35.69C291.35 -35.98 292.79 -35.93 294.24 -35.54C296.22 -36.39 298.09 -36.68 299.86 -36.41C301.62 -36.15 303.46 -35.6 305.36 -34.77C305.22 -33.96 305.23 -33.15 305.38 -32.33C305.53 -31.52 305.46 -30.72 305.19 -29.94C302.52 -27.99 299.91 -26.05 297.34 -24.1C294.77 -22.15 291.89 -20.63 288.72 -19.55C288.08 -19.75 287.45 -19.75 286.8 -19.55C286.16 -19.36 285.58 -19.14 285.05 -18.88C284.52 -18.63 283.96 -18.41 283.38 -18.24L282.33 -17.92C282.19 -17.31 282.25 -16.59 282.49 -15.78C282.7 -15.08 283 -14.39 283.4 -13.71C283.79 -13.03 284.09 -12.34 284.31 -11.64C284.34 -11.52 284.36 -11.42 284.35 -11.32C284.35 -11.22 284.37 -11.12 284.4 -11C284.58 -11.24 284.88 -11.43 285.29 -11.55C285.64 -11.66 285.98 -11.62 286.33 -11.43C286.67 -11.25 287 -11.05 287.32 -10.82C287.64 -10.6 287.96 -10.39 288.27 -10.2C288.58 -10.01 288.89 -9.95 289.18 -10.04C293.85 -11.44 298.17 -13.58 302.11 -16.45C306.06 -19.32 309.59 -22.59 312.69 -26.26C312.91 -27.22 313.17 -28.16 313.47 -29.08C313.77 -29.99 314.26 -30.81 314.94 -31.52C314.5 -32.54 314.43 -33.49 314.7 -34.37C314.98 -35.25 314.97 -36.18 314.67 -37.18Z"></path></g></svg>